<?xml version="1.0" encoding="UTF-8" standalone="no"?>
<!DOCTYPE svg PUBLIC "-//W3C//DTD SVG 1.1//EN" "http://www.w3.org/Graphics/SVG/1.1/DTD/svg11.dtd">
<svg width="100%" height="100%" viewBox="0 0 2770 1800" version="1.1" xmlns="http://www.w3.org/2000/svg" xmlns:xlink="http://www.w3.org/1999/xlink" xml:space="preserve" xmlns:serif="http://www.serif.com/" style="fill-rule:evenodd;clip-rule:evenodd;stroke-linejoin:round;stroke-miterlimit:2;">
    <g id="Legging" transform="matrix(1,0,0,1,-1084.79,-898.715)">
        <g transform="matrix(0.995657,-0.0930961,0.0930961,0.995657,1435.27,160.794)">
            <path d="M1651.56,2284.61C1591.98,2330.18 1667.91,2347.9 1705.72,2313.9C1741.35,2281.86 1785.86,2237.21 1814.47,2192.86C1816.22,2190.15 1816.48,2193.02 1815.44,2197.95C1807.61,2235.08 1819.78,2296.08 1873.33,2326.82C1929.49,2359.05 2001.54,2332.55 2035.62,2284.11C2037.65,2281.22 2002.35,2517.41 1911.77,2586.63C1886.57,2605.88 1816.68,2623.75 1801.24,2555C1788.69,2499.13 1843.56,2429.11 1899.47,2405.73C1910.37,2401.17 1899.93,2389.97 1881.54,2389.87C1853.95,2389.72 1809.11,2403.55 1796.89,2414.17C1721.89,2479.33 1758.33,2565.36 1796.63,2593.74C1867.79,2646.47 1962.07,2662.87 2017.48,2579.75C2085.44,2477.83 2117.7,2268.37 2124.45,2139.61C2126.69,2096.91 2057.44,2102.97 2058.3,2080.24C2058.24,2057.95 2046.14,2063.84 2046.07,2084.6C2046.62,2138.74 2017.99,2249.16 1975.1,2289.79C1955.58,2308.29 1932.31,2321.57 1897.86,2295.31C1875.42,2278.2 1867.35,2241.35 1880.42,2197.84C1915.11,2082.42 1925.26,2038.51 1992.94,2011.01C1995.04,2010.15 2000.22,2008.14 1999.39,2005.6C1998.66,2003.33 1997.08,2000.54 1983.02,1998.04C1916.42,1986.22 1872.49,2022.56 1845.84,2064.28C1833.88,2082.99 1806.05,2148.39 1792.22,2175.24C1752.5,2252.37 1710.37,2312.1 1651.56,2284.61Z" style="fill:rgb(255,0,0);"/>
        </g>
        <g transform="matrix(1,0,0,1,81.7405,-14.4396)">
            <path d="M3152.39,2030.5C3189.18,1971.19 3228.21,1961.04 3261.35,1978.3C3283.7,1989.93 3322.76,2039.02 3261.54,2292.71C3259.22,2302.32 3271.75,2317.4 3263.35,2323.68C3221.66,2354.86 3186.67,2341.72 3176.68,2325.31C3164.16,2304.77 3176.08,2266.92 3180.35,2250.75C3197.78,2184.72 3216.18,2103.92 3211.04,2066.29C3207.09,2037.43 3194.97,2025.22 3176.08,2026.56C3166.95,2027.59 3159.05,2037.35 3152.64,2055.45C3134.03,2107.93 3083.59,2282.37 3080.95,2291.59C3063.81,2351.32 3009.46,2306.06 2972.82,2347.18C2968.55,2351.97 2963.26,2341.63 2964.97,2334.56C2972.05,2305.24 3027.4,2130.17 3018.67,2066.29C3014.72,2037.35 3002.54,2025.16 2983.57,2026.57C2974.5,2027.62 2964.6,2044.76 2960.88,2053.93C2931.49,2126.36 2915.02,2249.54 2859.97,2311.62C2826.09,2349.82 2790.59,2356.08 2761.31,2340.83C2743.04,2331.32 2713.61,2296.79 2736.9,2145.93C2703.61,2202.49 2657.5,2231.02 2640.96,2229.72C2626.61,2228.59 2642.05,2217.38 2647.19,2215.22C2700.08,2192.92 2731.41,2106.19 2753.38,2042.97C2758.34,2028.68 2762.03,2020.58 2764.82,2015.94C2783.83,1972.41 2823.25,2010.36 2857.47,1971.95C2861.75,1967.15 2867.04,1977.5 2865.33,1984.57C2858.24,2013.89 2802.89,2188.95 2811.62,2252.84C2815.03,2277.77 2824.54,2290.27 2839.24,2292.35C2839.34,2292.34 2839.44,2292.33 2839.53,2292.34C2890.17,2295.82 2920.17,2124.27 2948.4,2054.15C2952.58,2043.74 2956.56,2035.44 2960.78,2029.29C2997.35,1971.06 3036.07,1961.16 3068.99,1978.3C3089.51,1988.98 3124.12,2031.25 3082.24,2234.54C3105.37,2178.99 3123.43,2097.34 3140.81,2054.15C3143.89,2046.51 3146.85,2040.01 3149.87,2034.66L3149.86,2034.66L3150.07,2034.3C3150.84,2032.96 3151.61,2031.69 3152.39,2030.5Z" style="fill:rgb(255,0,0);"/>
        </g>
        <g transform="matrix(0.995657,-0.0930961,0.0930961,0.995657,425.545,154.794)">
            <path d="M1703.15,2299.33C1688.78,2306.51 1672.31,2361.88 1710.12,2327.88C1745.76,2295.84 1785.86,2237.21 1814.47,2192.86C1816.22,2190.15 1816.48,2193.02 1815.44,2197.95C1807.61,2235.08 1819.78,2296.08 1873.33,2326.82C1929.49,2359.05 2001.54,2332.55 2035.62,2284.11C2037.65,2281.22 2002.35,2517.41 1911.77,2586.63C1886.57,2605.88 1816.68,2623.75 1801.24,2555C1788.69,2499.13 1843.56,2429.11 1899.47,2405.73C1910.37,2401.17 1899.93,2389.97 1881.54,2389.87C1853.95,2389.72 1809.11,2403.55 1796.89,2414.17C1721.89,2479.33 1758.33,2565.36 1796.63,2593.74C1867.79,2646.47 1962.07,2662.87 2017.48,2579.75C2085.44,2477.83 2117.7,2268.37 2124.45,2139.61C2126.69,2096.91 2057.44,2102.97 2058.3,2080.24C2058.24,2057.95 2046.14,2063.84 2046.07,2084.6C2046.62,2138.74 2017.99,2249.16 1975.1,2289.79C1955.58,2308.29 1932.31,2321.57 1897.86,2295.31C1875.42,2278.2 1867.35,2241.35 1880.42,2197.84C1915.11,2082.42 1925.26,2038.51 1992.94,2011.01C1995.04,2010.15 2000.22,2008.14 1999.39,2005.6C1998.66,2003.33 1997.08,2000.54 1983.02,1998.04C1916.42,1986.22 1872.49,2022.56 1845.84,2064.28C1833.88,2082.99 1806.05,2148.39 1792.22,2175.24C1764.28,2229.48 1737.21,2282.31 1703.15,2299.33Z" style="fill:rgb(255,0,0);"/>
        </g>
        <g transform="matrix(0.995657,-0.0930961,0.0930961,0.995657,49.7566,148.119)">
            <path d="M1658.35,2300.33C1658.66,2301.23 1653.55,2290.83 1660.7,2305.2C1671.86,2327.62 1696.22,2337.12 1719.25,2316.4C1754.89,2284.36 1785.86,2237.21 1814.47,2192.86C1816.22,2190.15 1816.48,2193.02 1815.44,2197.95C1807.61,2235.08 1819.78,2296.08 1873.33,2326.82C1929.49,2359.05 2001.54,2332.55 2035.62,2284.11C2037.65,2281.22 2002.35,2517.41 1911.77,2586.63C1886.57,2605.88 1816.68,2623.75 1801.24,2555C1788.69,2499.13 1843.56,2429.11 1899.47,2405.73C1910.37,2401.17 1899.93,2389.97 1881.54,2389.87C1853.95,2389.72 1809.11,2403.55 1796.89,2414.17C1721.89,2479.33 1758.33,2565.36 1796.63,2593.74C1867.79,2646.47 1962.07,2662.87 2017.48,2579.75C2085.44,2477.83 2117.7,2268.37 2124.45,2139.61C2126.69,2096.91 2057.44,2102.97 2058.3,2080.24C2058.24,2057.95 2046.14,2063.84 2046.07,2084.6C2046.62,2138.74 2017.99,2249.16 1975.1,2289.79C1955.58,2308.29 1932.31,2321.57 1897.86,2295.31C1875.42,2278.2 1867.35,2241.35 1880.42,2197.84C1915.11,2082.42 1925.26,2038.51 1992.94,2011.01C1995.04,2010.15 2000.22,2008.14 1999.39,2005.6C1998.66,2003.33 1997.08,2000.54 1983.02,1998.04C1916.42,1986.22 1872.49,2022.56 1845.84,2064.28C1833.88,2082.99 1799.65,2154.34 1785.82,2181.19C1760.99,2229.41 1727.12,2280.52 1698.13,2302.34C1688.32,2309.73 1675.79,2313.41 1672.31,2292.57C1671.61,2288.41 1655.98,2293.6 1658.35,2300.33Z" style="fill:rgb(255,0,0);"/>
        </g>
        <g transform="matrix(1.32513,0.193334,-0.199946,1.37045,107.547,-1034.57)">
            <path d="M1581.84,2220.78C1549.35,2222.24 1577.35,2256.75 1631.89,2236.19C1698.37,2211.14 1707.08,2177.73 1711.22,2161.32C1723.98,2110.7 1748.79,2000.41 1677.75,1960.75C1640.98,1940.23 1561.68,1932.43 1541.12,2033.7C1518.5,2145.12 1564.61,2176.99 1587.47,2183.93C1634.85,2198.32 1643.23,2178.12 1633.56,2176.9C1623.31,2175.61 1606.57,2164.28 1598.62,2152.99C1584.96,2133.6 1589.35,2070.88 1595.7,2042.48C1610.18,1977.81 1632.58,1962.22 1649.59,1986.74C1668.97,2014.67 1668.62,2096.46 1648.04,2159.24C1638.65,2187.9 1633.34,2205.47 1614.8,2213.97C1607.24,2217.44 1594.98,2220.18 1581.84,2220.78Z" style="fill:rgb(255,0,0);"/>
        </g>
        <g transform="matrix(1,0,0,1,1084.79,898.715)">
            <path d="M356.453,777.627C359.028,772.477 361.58,767.486 364.119,762.536C400.871,690.868 470.485,644.837 553.544,689.106C643.447,737.023 614.572,905.909 508.632,940.61C472.668,952.391 438.976,948.35 409.026,936.218C405.946,934.971 402.922,933.484 399.959,931.773C372.777,1034.96 350.33,1154.82 339.686,1237.32C338.896,1243.44 338.107,1249.34 337.31,1255.03L337.057,1256.83C349.519,1264.7 363.64,1274.23 379.656,1285.76C425.859,1319.04 477.118,1358.86 550.392,1384.87C580.482,1395.55 617.996,1409.26 656.684,1413.87C678.413,1416.45 707.79,1419.74 722.991,1412.48C772.657,1388.78 778.775,1418.06 777.442,1419.17C769.564,1425.79 749.853,1444.35 727.847,1449.36C696.87,1456.41 666.343,1459.84 643.712,1461.12C563.583,1465.67 458.69,1448.55 382.822,1378.12C362.599,1359.34 344.555,1336.34 327.326,1314.45C316.308,1366.23 300.562,1397.29 265.69,1425.85C232.757,1452.82 178.966,1446.28 142.986,1423.04C94.248,1391.55 90.563,1333.67 98.156,1303.73C119.429,1219.85 190.54,1205.52 246.217,1217.56L246.218,1217.56C280.119,1000.47 307.152,898.021 331.27,834.617C323.917,816.373 317.231,796.476 311.174,775.476C293.258,713.364 244.552,703.792 241.845,697.591C236.102,684.442 266.172,682.422 295.097,699.101C319.025,712.899 338.386,744.47 356.453,777.627ZM242.916,1238.93C230.608,1236.25 217.638,1238.03 203.594,1245.9C167.367,1266.22 129.567,1367.03 161.601,1392.08C179.211,1405.85 222.869,1375.77 233.329,1303.44C236.585,1280.92 239.779,1259.44 242.916,1238.93ZM416.801,872.227C429.79,883.358 443.857,887.012 460.003,878.248C513.809,849.043 543.901,765.481 513.822,732.241C483.691,698.944 448.272,769.131 416.801,872.227Z" style="fill:rgb(255,0,0);"/>
        </g>
    </g>
    <g id="Jus" transform="matrix(0.813456,0,0,0.806726,-559.066,-503.953)">
        <g transform="matrix(1,0,0,1,-3,0)">
            <path d="M2910.09,1683.65C2912.52,1679.71 2919.8,1660.34 2952.94,1657.44C3099.1,1644.68 3461.2,1721.85 3560.82,1666.43C3575.99,1658.87 3574.79,1677.75 3563.32,1681.79C3499.05,1714.28 3451.06,1755.06 3288.8,1739.04C3236.72,1733.9 2930.84,1650.69 2936.46,1696.9C2937.92,1708.94 2912.75,1681.29 2910.09,1683.65Z" style="fill:rgb(255,0,0);"/>
        </g>
        <g transform="matrix(1.22932,0,0,1.23958,-646.282,-489.339)">
            <path d="M2875.91,1553.06C2880.51,1523.51 2890.41,1474.53 2901.62,1446.87C2914.37,1415.4 2922.51,1393.99 2958.3,1399.95C2998.24,1406.59 3135.02,1628.77 3146.44,1680.37C3171.43,1793.3 3099.18,1860.09 3035.13,1871.79C2971.08,1883.5 2912.76,1857.8 2892.87,1798.96C2872.97,1740.11 2910.84,1736.65 2910.84,1755.91C2918.95,1829.6 3001.46,1880.92 3046.6,1784.56C3091.73,1688.19 2936.16,1495.57 2927.61,1490.36C2919.06,1485.16 2911.17,1486.41 2904.67,1495.01C2898.46,1503.22 2894.03,1541.24 2890.21,1554.45C2864.92,1716.74 2827.85,1845.56 2741.2,1869.55C2729.45,1872.8 2723.55,1857.31 2743.02,1853.04C2836.47,1832.54 2869.28,1581.01 2875.91,1553.06Z" style="fill:rgb(255,0,0);"/>
        </g>
        <g transform="matrix(1.15737,0,0,1.13852,-432.802,-253.485)">
            <path d="M2611.36,1786.32C2589.3,1814.2 2555.74,1838.53 2502.86,1847.58C2361.93,1871.7 2344.83,1793.25 2347.34,1759.5L2347.35,1759.39L2347.34,1759.39L2370.1,1501.91C2374.26,1453.87 2342.34,1386.43 2283.04,1352.48C2283.04,1352.48 2278.5,1339.98 2284.14,1336.4C2321.87,1344.97 2366.65,1370.96 2394.83,1375.15C2444.75,1382.57 2489.36,1385.43 2489.34,1402.1C2489.32,1415.6 2471.44,1649.83 2464.64,1738.4C2464.65,1739.89 2464.57,1741.43 2464.39,1743.04C2457.54,1803.56 2490.51,1812.82 2510.75,1816.2C2554.58,1823.52 2584.04,1801.39 2590.11,1733.2C2590.11,1733.2 2610.18,1506.11 2610.18,1506.11C2618.68,1408.26 2594.17,1391.71 2610.48,1384.06C2622.41,1378.46 2638.7,1394.5 2662.63,1400.13C2692.81,1407.24 2729.08,1403.96 2729.08,1416.29C2729.08,1432.05 2705,1739.71 2702.38,1773.2C2701.35,1815.05 2738.99,1812.6 2758.04,1807.42C2751.14,1818.01 2735.31,1833.29 2686.51,1833.29C2640.66,1833.29 2620.03,1811.68 2611.36,1786.32Z" style="fill:rgb(255,0,0);"/>
        </g>
        <g transform="matrix(1.15737,0,0,1.13852,-432.802,-253.485)">
            <path d="M2289.25,1261.02C2288.3,1286.64 2282.75,1352.31 2283.04,1352.48C2266.07,1524.46 2226.2,1687.38 2162.12,1776.27C2115.45,1840.99 2066.44,1855.04 1990.25,1849.19C1872.12,1840.12 1851.2,1721.13 1857.78,1634.99C1866.21,1524.56 1925.49,1378.01 1969.48,1350.64C2032.8,1311.22 2099.47,1340.34 2154.06,1338.54C2157.36,1338.43 2160.62,1338.21 2163.83,1337.85C2172.04,1197.44 2149.56,928.215 2076.69,880.439C2002.57,831.848 2006.14,1003.93 2024.7,1170.86C2024.82,1171.94 2033.82,1202.13 1971.54,1212.41C1918.91,1221.1 1914.69,1180.46 1914.41,1178.53C1892.74,1032.39 1912.33,871.246 2055.49,844.265C2235.23,810.39 2298.12,1023.09 2289.25,1261.02ZM2163.09,1349.13C2148.04,1353.09 2090.68,1353.91 2064.06,1367.73C2002.39,1399.74 1979.61,1504.31 1959.75,1604.98C1947.71,1666.03 1935.89,1788.28 1991.04,1814.23C2095.16,1863.22 2133.52,1586.89 2153.7,1449.37C2157.44,1423.87 2160.45,1388.78 2163.09,1349.13Z" style="fill:rgb(255,0,0);"/>
        </g>
    </g>
</svg>
