<?xml version="1.0" encoding="UTF-8" standalone="no"?>
<!DOCTYPE svg PUBLIC "-//W3C//DTD SVG 1.1//EN" "http://www.w3.org/Graphics/SVG/1.1/DTD/svg11.dtd">
<svg width="100%" height="100%" viewBox="0 0 878 878" version="1.1" xmlns="http://www.w3.org/2000/svg" xmlns:xlink="http://www.w3.org/1999/xlink" xml:space="preserve" xmlns:serif="http://www.serif.com/" style="fill-rule:evenodd;clip-rule:evenodd;stroke-linecap:round;stroke-linejoin:round;stroke-miterlimit:1.5;">
    <g transform="matrix(2.08333,0,0,2.08333,0,0)">
        <path id="fill-2" serif:id="fill 2" d="M298,245C299.436,253.785 301.192,304.179 269,345C240.161,381.569 179.919,367.418 165,355L166,363C166,363 180.991,372.746 186,374C207.582,379.403 259.089,386.846 284,355C295.509,340.287 311.331,313.328 312,265C309.031,257.419 304.425,250.182 298,245Z"/>
        <path id="fill-1" serif:id="fill 1" d="M265,215C266.443,224.107 273.182,276.045 254,309C243.902,326.349 178.835,377.596 138,326C136.466,324.061 133,329 133,329C133,329 146.196,348.719 155,353C192.924,371.442 228.58,357.988 245,345C261.42,332.012 294.522,303.844 283,230C276.605,223.997 273.739,217.403 265,215Z"/>
        <path id="left-eye" serif:id="left eye" d="M134,243C131.792,245.244 129.146,252.46 132,258C134.854,263.54 139.87,263.879 145,263C150.13,262.121 152.239,251.225 149,246C145.761,240.775 139.282,237.633 134,243Z"/>
        <path id="right-eye" serif:id="right eye" d="M204,211C199.634,211.367 196.668,218.635 197,222C197.332,225.365 199.039,233.425 209,234C213.95,234.251 218.341,231.19 218,223C217.659,214.81 210.812,210.428 204,211Z"/>
        <g id="lines">
            <path d="M221,189C228.623,191.297 238.724,199.405 242,209C245.276,218.595 247.344,245.476 228,254C208.656,262.524 188.694,251.886 188,233C187.306,214.114 191.946,194.719 199,188" style="fill:none;stroke:black;stroke-width:15px;"/>
            <path d="M169,232L186,228" style="fill:none;stroke:black;stroke-width:15px;"/>
            <path d="M155,349C155,349 145.076,372.536 144,389" style="fill:none;stroke:black;stroke-width:15px;"/>
            <path d="M177,365L178,403" style="fill:none;stroke:black;stroke-width:15px;"/>
            <path d="M208,379L206,400" style="fill:none;stroke:black;stroke-width:15px;"/>
            <path d="M291,368C291,368 296.265,378.048 299,383" style="fill:none;stroke:black;stroke-width:15px;"/>
            <path d="M316,309C315.552,318.841 319.777,336.745 332,354" style="fill:none;stroke:black;stroke-width:15px;"/>
            <path d="M280,268C281.291,273.865 284.119,309.441 281,324" style="fill:none;stroke:black;stroke-width:15px;"/>
            <path d="M187,196C184.404,177.482 174.127,122.117 180,88C185.873,53.883 208.064,15.679 215,16C225.925,16.505 252.553,60.316 259,102C260.384,110.951 263.452,135.777 260,145C256.381,154.671 226.64,189.534 215,198" style="fill:none;stroke:black;stroke-width:15px;"/>
            <path d="M213,133C216.718,136.556 219.878,146.383 220,155C223.086,139.264 233.546,100.382 272,105C294.48,107.613 313.523,119.189 316,151C316.561,167.189 299.743,197.578 268,201" style="fill:none;stroke:black;stroke-width:15px;"/>
            <path d="M185,120C170.648,115.862 139.153,116.662 137,148C136.107,165.686 134.823,186.78 142,199" style="fill:none;stroke:black;stroke-width:15px;"/>
            <path d="M176,205C165.047,192.204 122.456,130.163 117,118C111.544,105.837 95.038,77.937 83,69C70.962,60.063 52.773,45.48 48,45C43.227,44.52 34.202,64.088 34,84C33.798,103.912 32.316,139.587 62,167C74.883,176.94 93.316,195.094 122,200C150.684,204.906 167.576,206.041 176,205Z" style="fill:none;stroke:black;stroke-width:15px;"/>
            <path d="M173,192C181.557,189.605 198.262,185.364 210,188C221.738,190.636 255.243,191.163 300,245C313.241,262.014 323.489,288.989 322,305C320.511,321.011 315.482,345.866 283,370C265.441,380.35 238.227,391.554 206,381C173.773,370.446 130.805,344.111 119,305C110.48,284.028 109.163,237.566 112,230C114.837,222.434 123.346,204.853 136,205" style="fill:none;stroke:black;stroke-width:15px;"/>
            <path d="M176,299C183.953,303.584 193.922,307.589 208,286" style="fill:none;stroke:black;stroke-width:15px;"/>
            <path d="M131,209C137.527,202.959 150.984,204.827 159,213C169.068,223.265 176.243,256.334 157,279C146.947,290.841 125.353,283.494 120,273C110.335,254.054 111.383,227.159 131,209Z" style="fill:none;stroke:black;stroke-width:15px;"/>
        </g>
    </g>
</svg>
