<?xml version="1.0" encoding="UTF-8" standalone="no"?>
<!DOCTYPE svg PUBLIC "-//W3C//DTD SVG 1.1//EN" "http://www.w3.org/Graphics/SVG/1.1/DTD/svg11.dtd">
<svg width="100%" height="100%" viewBox="0 0 1118 659" version="1.1" xmlns="http://www.w3.org/2000/svg" xmlns:xlink="http://www.w3.org/1999/xlink" xml:space="preserve" xmlns:serif="http://www.serif.com/" style="fill-rule:evenodd;clip-rule:evenodd;stroke-linecap:square;stroke-miterlimit:1.5;">
    <g id="Artboard1" transform="matrix(0.932998,0,0,0.975671,40.8947,23.2983)">
        <rect x="-43.831" y="-23.879" width="1197.39" height="675.05" style="fill:none;"/>
        <clipPath id="_clip1">
            <rect x="-43.831" y="-23.879" width="1197.39" height="675.05"/>
        </clipPath>
        <g clip-path="url(#_clip1)">
            <g transform="matrix(7.77654,0,0,22.0137,-443.709,-4201.56)">
                <rect x="47.298" y="188.652" width="165.184" height="32.55" style="fill:rgb(249,249,249);"/>
            </g>
            <g transform="matrix(1.11135,0,0,1.06274,-45.0096,-49.6935)">
                <rect x="-1.034" y="193.091" width="7.443" height="489.737" style="fill:rgb(255,206,75);"/>
            </g>
            <g transform="matrix(5.22822,0,0,2.80533,42.3691,-555.98)">
                <rect x="47.298" y="188.652" width="165.184" height="32.55" style="fill:rgb(216,216,216);"/>
            </g>
            <g transform="matrix(1.07181,0,0,1.02494,108.889,-23.8793)">
                <text x="453.495px" y="52.569px" style="font-family:'ArialMT', 'Arial', sans-serif;font-size:22px;fill:rgb(73,75,97);">F<tspan x="465.393px 476.089px 485.549px 496.244px 500.816px 512.736px 523.431px 526.779px 537.475px 546.935px 550.282px 554.855px " y="52.569px 52.569px 52.569px 52.569px 52.569px 52.569px 52.569px 52.569px 52.569px 52.569px 52.569px 52.569px ">ake Velocity</tspan></text>
            </g>
            <g transform="matrix(1.07181,0,0,1.02494,398.935,-23.8793)">
                <text x="453.495px" y="52.569px" style="font-family:'ArialMT', 'Arial', sans-serif;font-size:22px;fill:rgb(73,75,97);">F<tspan x="465.393px 476.089px 485.549px 496.244px 500.816px 513.95px 524.645px 535.341px 546.036px 555.496px 566.191px 570.764px 585.111px 595.807px 600.379px " y="52.569px 52.569px 52.569px 52.569px 52.569px 52.569px 52.569px 52.569px 52.569px 52.569px 52.569px 52.569px 52.569px 52.569px 52.569px ">ake Bounce Rate</tspan></text>
            </g>
            <g transform="matrix(1.07181,0,0,1.02494,-180.362,-23.8793)">
                <text x="453.495px" y="52.569px" style="font-family:'ArialMT', 'Arial', sans-serif;font-size:22px;fill:rgb(73,75,97);">F<tspan x="465.393px 476.089px 485.549px 496.244px 500.816px 513.95px 524.645px 534.105px 543.565px 546.913px 557.608px 568.304px " y="52.569px 52.569px 52.569px 52.569px 52.569px 52.569px 52.569px 52.569px 52.569px 52.569px 52.569px 52.569px ">ake Sessions</tspan></text>
            </g>
            <g transform="matrix(1.07181,0,0,1.02494,-179.146,-23.8793)">
                <rect x="437.08" y="0.485" width="8.033" height="85.325" style="fill:rgb(130,194,61);"/>
            </g>
            <g transform="matrix(1.07181,0,0,1.02494,109.173,-23.8793)">
                <rect x="437.08" y="0.485" width="8.033" height="85.325" style="fill:rgb(130,194,61);"/>
            </g>
            <g transform="matrix(1.07181,0,0,1.02494,397.617,-23.8793)">
                <rect x="437.08" y="0.485" width="8.033" height="85.325" style="fill:rgb(130,194,61);"/>
            </g>
            <g transform="matrix(2.06913,0,0,0.943602,-128.889,-96.5635)">
                <rect x="47.298" y="188.652" width="165.184" height="32.55" style="fill:rgb(231,231,231);"/>
            </g>
            <g transform="matrix(7.31923,0,0,2.78225,-401.931,-460.786)">
                <rect x="47.298" y="188.652" width="165.184" height="32.55" style="fill:rgb(231,231,231);"/>
            </g>
            <g transform="matrix(3.49136,0,0,0.996313,-801.006,-20.7154)">
                <rect x="312.209" y="176.776" width="45.746" height="60.287" style="fill:rgb(217,233,200);"/>
            </g>
            <g transform="matrix(5.94814,0,0,0.996313,-1280,-20.7154)">
                <rect x="312.209" y="176.776" width="45.746" height="60.287" style="fill:rgb(217,233,200);"/>
            </g>
            <g transform="matrix(0.49181,0,0,0.996313,712.161,-20.7154)">
                <rect x="312.209" y="176.776" width="45.746" height="60.287" style="fill:rgb(217,233,200);"/>
            </g>
            <g transform="matrix(2.20526,0,0,1.00654,-399.858,39.5454)">
                <rect x="312.209" y="176.776" width="45.746" height="60.287" style="fill:rgb(217,233,200);"/>
            </g>
            <g transform="matrix(0.282828,0,0,1.00654,488.622,39.5454)">
                <rect x="312.209" y="176.776" width="45.746" height="60.287" style="fill:rgb(217,233,200);"/>
            </g>
            <g transform="matrix(6.14314,0,0,1.00654,-1052.23,39.5454)">
                <rect x="312.209" y="176.776" width="45.746" height="60.287" style="fill:rgb(217,233,200);"/>
            </g>
            <g transform="matrix(1.57922,0,0,1.03184,-204.565,96.7744)">
                <rect x="312.209" y="176.776" width="45.746" height="60.287" style="fill:rgb(217,233,200);"/>
            </g>
            <g transform="matrix(0.284859,0,0,1.02932,487.988,97.4489)">
                <rect x="312.209" y="176.776" width="45.746" height="60.287" style="fill:rgb(217,233,200);"/>
            </g>
            <g transform="matrix(5.95924,0,0,1.00042,-994.817,103.277)">
                <rect x="312.209" y="176.776" width="45.746" height="60.287" style="fill:rgb(217,233,200);"/>
            </g>
            <g transform="matrix(0.63791,0,0,1.00366,89.4611,164.865)">
                <rect x="312.209" y="176.776" width="45.746" height="60.287" style="fill:rgb(217,233,200);"/>
            </g>
            <g transform="matrix(0.281414,0,0,1.01609,489.063,162.142)">
                <rect x="312.209" y="176.776" width="45.746" height="60.287" style="fill:rgb(217,233,200);"/>
            </g>
            <g transform="matrix(5.73231,0,0,1.01845,-923.969,162.252)">
                <rect x="312.209" y="176.776" width="45.746" height="60.287" style="fill:rgb(217,233,200);"/>
            </g>
            <g transform="matrix(0.197559,0,0,4.2711,226.986,-360.139)">
                <rect x="312.209" y="176.776" width="45.746" height="60.287" style="fill:rgb(217,233,200);"/>
            </g>
            <g transform="matrix(5.94806,0,0,4.12283,-1279.99,-324.99)">
                <rect x="312.209" y="176.776" width="45.746" height="60.287" style="fill:rgb(217,233,200);"/>
            </g>
            <g transform="matrix(2.25642,0,0,4.1452,161.234,-330.293)">
                <rect x="312.209" y="176.776" width="45.746" height="60.287" style="fill:rgb(217,233,200);"/>
            </g>
            <g transform="matrix(1.07181,0,0,1.02494,740.415,-28.9842)">
                <text x="317.809px" y="158.112px" style="font-family:'ArialMT', 'Arial', sans-serif;font-size:16px;fill:rgb(178,178,178);">Sep 30</text>
            </g>
            <g transform="matrix(0.831441,0,0,1.00446,164.05,-21.3819)">
                <path d="M865.114,127.59L878.223,132.177L883.395,127.439L894.016,125.047L899.57,130.416L916.987,122.278L935.659,121.921L944.384,126.024L958.21,126.024L974.57,118.838L987.552,122.42L1002.18,126.381L1020.31,119.051L1032.05,123.321L1045.67,123.643L1052.94,117.88L1063.36,117.88L1076.22,122.101L1086.75,120.781L1100.73,118.021L1107.28,123.579" style="fill:none;stroke:rgb(197,216,173);stroke-width:4.75px;"/>
            </g>
            <g transform="matrix(0.913451,0,0,1.04028,49.7291,-26.0664)">
                <path d="M591.233,120.408L600.618,115.47L611.888,121.009L621.653,125.356L634.852,121.757L648.273,121.579L657.612,128.477L664.936,122.546L671.617,117.866L679.798,111.504L686.938,117.851L690.743,124.359L700.055,120.481L707.095,120.481L720.863,127.206L729.618,125.585L738.222,124.104L747.354,118.286L753.921,119.747L767.311,121.505L776.752,119.099L787.925,115.156L796.414,119.808L803.591,123.415L814.202,126.323L823.99,128.89L833.654,127.383" style="fill:none;stroke:rgb(197,216,173);stroke-width:4.48px;"/>
            </g>
            <g transform="matrix(0.705859,0,0,1.45121,76.409,-78.83)">
                <path d="M328.753,128.418L339.015,119.807L348.49,126.99L354.982,126.454L368.653,127.929L380.158,124.047L395.687,120.664L402.281,124.841L416.501,127.142L430.749,125.742L443.346,124.781L454.343,127.275L469.437,127.454L481.09,121.17L496.651,125.842L515.36,117.594L522.061,122.933L536.885,118.379L545.726,124.109L558.828,126.236L568.207,120.2" style="fill:none;stroke:rgb(197,216,173);stroke-width:3.8px;"/>
            </g>
            <g transform="matrix(1.07181,0,0,1.02494,-244.341,-32.9945)">
                <text x="1248.88px" y="140.859px" style="font-family:'Arial-BoldMT', 'Arial', sans-serif;font-weight:700;font-size:22px;fill:rgb(73,75,97);">9<tspan x="1259.35px 1269.83px " y="140.859px 140.859px ">9%</tspan></text>
            </g>
            <g transform="matrix(1.07181,0,0,1.02494,-536.262,-32.6396)">
                <text x="1266.68px" y="140.859px" style="font-family:'Arial-BoldMT', 'Arial', sans-serif;font-weight:700;font-size:22px;fill:rgb(73,75,97);">9<tspan x="1277.15px " y="140.859px ">9</tspan></text>
            </g>
            <g transform="matrix(1.07181,0,0,1.02494,-824.979,-35.5094)">
                <text x="1220.42px" y="140.859px" style="font-family:'Arial-BoldMT', 'Arial', sans-serif;font-weight:700;font-size:22px;fill:rgb(73,75,97);">9<tspan x="1230.9px 1241.38px 1251.85px 1256.2px 1266.68px 1277.15px " y="140.859px 140.859px 140.859px 140.859px 140.859px 140.859px ">99,999</tspan></text>
            </g>
            <g transform="matrix(1.07181,0,0,1.02494,-884.671,46.6352)">
                <text x="1226.69px" y="140.859px" style="font-family:'ArialMT', 'Arial', sans-serif;font-size:20px;fill:rgb(73,75,97);">9<tspan x="1236.22px 1245.74px 1255.26px 1259.22px 1268.74px 1278.27px " y="140.859px 140.859px 140.859px 140.859px 140.859px 140.859px ">99,999</tspan></text>
            </g>
            <g transform="matrix(1.07181,0,0,1.02494,-1304.09,46.6352)">
                <text x="1228.29px" y="140.859px" style="font-family:'Arial-BoldMT', 'Arial', sans-serif;font-weight:700;font-size:20px;fill:rgb(64,64,64);">s<tspan x="1237.82px 1247.34px 1253.52px 1263.05px 1267px 1276.53px 1286.05px 1296.67px 1307.28px 1320.5px 1324.45px 1333.98px 1344.59px " y="140.859px 140.859px 140.859px 140.859px 140.859px 140.859px 140.859px 140.859px 140.859px 140.859px 140.859px 140.859px 140.859px ">ervicenow.com</tspan></text>
            </g>
            <g transform="matrix(1.07181,0,0,1.02494,-1388.72,46.6352)">
                <text x="1274.31px" y="140.859px" style="font-family:'Arial-BoldMT', 'Arial', sans-serif;font-weight:700;font-size:20px;fill:rgb(64,64,64);">1<tspan x="1283.83px " y="140.859px ">.</tspan></text>
            </g>
            <g transform="matrix(1.07181,0,0,1.02494,-536.099,46.6352)">
                <text x="1268.74px" y="140.859px" style="font-family:'ArialMT', 'Arial', sans-serif;font-size:20px;fill:rgb(73,75,97);">9<tspan x="1278.27px " y="140.859px ">9</tspan></text>
            </g>
            <g transform="matrix(1.07181,0,0,1.02494,-308.7,46.6352)">
                <text x="1278.27px" y="140.859px" style="font-family:'ArialMT', 'Arial', sans-serif;font-size:20px;fill:rgb(73,75,97);">1</text>
            </g>
            <g transform="matrix(1.07181,0,0,1.02494,-884.671,108.544)">
                <text x="1226.69px" y="140.859px" style="font-family:'ArialMT', 'Arial', sans-serif;font-size:20px;fill:rgb(73,75,97);">9<tspan x="1236.22px 1245.74px 1255.26px 1259.22px 1268.74px 1278.27px " y="140.859px 140.859px 140.859px 140.859px 140.859px 140.859px ">99,999</tspan></text>
            </g>
            <g transform="matrix(1.07181,0,0,1.02494,-1304.09,108.544)">
                <text x="1228.29px" y="140.859px" style="font-family:'Arial-BoldMT', 'Arial', sans-serif;font-weight:700;font-size:20px;fill:rgb(64,64,64);">s<tspan x="1237.82px 1247.34px 1253.52px 1263.05px 1267px 1276.53px 1286.05px 1296.67px 1307.28px 1320.5px 1324.45px 1333.98px 1344.59px 1360.78px 1364.73px 1369.79px 1380.41px 1386.59px " y="140.859px 140.859px 140.859px 140.859px 140.859px 140.859px 140.859px 140.859px 140.859px 140.859px 140.859px 140.859px 140.859px 140.859px 140.859px 140.859px 140.859px 140.859px ">ervicenow.com/form</tspan></text>
            </g>
            <g transform="matrix(1.07181,0,0,1.02494,-1388.72,108.544)">
                <text x="1274.31px" y="140.859px" style="font-family:'Arial-BoldMT', 'Arial', sans-serif;font-weight:700;font-size:20px;fill:rgb(64,64,64);">2<tspan x="1283.83px " y="140.859px ">.</tspan></text>
            </g>
            <g transform="matrix(1.07181,0,0,1.02494,-536.099,108.544)">
                <text x="1278.27px" y="140.859px" style="font-family:'ArialMT', 'Arial', sans-serif;font-size:20px;fill:rgb(73,75,97);">1</text>
            </g>
            <g transform="matrix(1.07181,0,0,1.02494,-308.7,108.544)">
                <text x="1226.69px" y="140.859px" style="font-family:'ArialMT', 'Arial', sans-serif;font-size:20px;fill:rgb(73,75,97);">9<tspan x="1236.22px 1245.74px 1255.26px 1259.22px 1268.74px 1278.27px " y="140.859px 140.859px 140.859px 140.859px 140.859px 140.859px ">99,999</tspan></text>
            </g>
            <g transform="matrix(1.07181,0,0,1.02494,-884.671,170.88)">
                <text x="1226.69px" y="140.859px" style="font-family:'ArialMT', 'Arial', sans-serif;font-size:20px;fill:rgb(73,75,97);">9<tspan x="1236.22px 1245.74px 1255.26px 1259.22px 1268.74px 1278.27px " y="140.859px 140.859px 140.859px 140.859px 140.859px 140.859px ">99,999</tspan></text>
            </g>
            <g transform="matrix(1.07181,0,0,1.02494,-1304.09,170.88)">
                <text x="1228.29px" y="140.859px" style="font-family:'Arial-BoldMT', 'Arial', sans-serif;font-weight:700;font-size:20px;fill:rgb(64,64,64);">s<tspan x="1237.82px 1247.34px 1253.52px 1263.05px 1267px 1276.53px 1286.05px 1296.67px 1307.28px 1320.5px 1324.45px 1333.98px 1344.59px 1360.78px 1364.73px 1374.26px 1384.87px 1395.49px 1400.55px 1411.17px 1420.69px 1426.87px 1436.4px 1441.46px 1452.07px 1458.26px " y="140.859px 140.859px 140.859px 140.859px 140.859px 140.859px 140.859px 140.859px 140.859px 140.859px 140.859px 140.859px 140.859px 140.859px 140.859px 140.859px 140.859px 140.859px 140.859px 140.859px 140.859px 140.859px 140.859px 140.859px 140.859px 140.859px ">ervicenow.com/another_form</tspan></text>
            </g>
            <g transform="matrix(1.07181,0,0,1.02494,-1388.72,170.88)">
                <text x="1274.31px" y="140.859px" style="font-family:'Arial-BoldMT', 'Arial', sans-serif;font-weight:700;font-size:20px;fill:rgb(64,64,64);">3<tspan x="1283.83px " y="140.859px ">.</tspan></text>
            </g>
            <g transform="matrix(1.07181,0,0,1.02494,-536.099,170.88)">
                <text x="1278.27px" y="140.859px" style="font-family:'ArialMT', 'Arial', sans-serif;font-size:20px;fill:rgb(73,75,97);">1</text>
            </g>
            <g transform="matrix(1.07181,0,0,1.02494,-308.7,170.88)">
                <text x="1226.69px" y="140.859px" style="font-family:'ArialMT', 'Arial', sans-serif;font-size:20px;fill:rgb(73,75,97);">9<tspan x="1236.22px 1245.74px 1255.26px 1259.22px 1268.74px 1278.27px " y="140.859px 140.859px 140.859px 140.859px 140.859px 140.859px ">99,999</tspan></text>
            </g>
            <g transform="matrix(1.07181,0,0,1.02494,-884.671,232.374)">
                <text x="1226.69px" y="140.859px" style="font-family:'ArialMT', 'Arial', sans-serif;font-size:20px;fill:rgb(73,75,97);">9<tspan x="1236.22px 1245.74px 1255.26px 1259.22px 1268.74px 1278.27px " y="140.859px 140.859px 140.859px 140.859px 140.859px 140.859px ">99,999</tspan></text>
            </g>
            <g transform="matrix(1.07181,0,0,1.02494,-1304.09,232.374)">
                <text x="1228.29px" y="140.859px" style="font-family:'Arial-BoldMT', 'Arial', sans-serif;font-weight:700;font-size:20px;fill:rgb(64,64,64);">s<tspan x="1237.82px 1247.34px 1253.52px 1263.05px 1267px 1276.53px 1286.05px 1296.67px 1307.28px 1320.5px 1324.45px 1333.98px 1344.59px 1360.78px 1364.73px 1380.92px 1391.53px 1397.72px 1407.24px 1416.76px 1421.82px 1432.44px 1438.62px " y="140.859px 140.859px 140.859px 140.859px 140.859px 140.859px 140.859px 140.859px 140.859px 140.859px 140.859px 140.859px 140.859px 140.859px 140.859px 140.859px 140.859px 140.859px 140.859px 140.859px 140.859px 140.859px 140.859px ">ervicenow.com/more_form</tspan></text>
            </g>
            <g transform="matrix(1.07181,0,0,1.02494,-1388.72,232.374)">
                <text x="1274.31px" y="140.859px" style="font-family:'Arial-BoldMT', 'Arial', sans-serif;font-weight:700;font-size:20px;fill:rgb(64,64,64);">4<tspan x="1283.83px " y="140.859px ">.</tspan></text>
            </g>
            <g transform="matrix(1.07181,0,0,1.02494,-536.099,232.374)">
                <text x="1278.27px" y="140.859px" style="font-family:'ArialMT', 'Arial', sans-serif;font-size:20px;fill:rgb(73,75,97);">1</text>
            </g>
            <g transform="matrix(1.07181,0,0,1.02494,-308.7,232.374)">
                <text x="1226.69px" y="140.859px" style="font-family:'ArialMT', 'Arial', sans-serif;font-size:20px;fill:rgb(73,75,97);">9<tspan x="1236.22px 1245.74px 1255.26px 1259.22px 1268.74px 1278.27px " y="140.859px 140.859px 140.859px 140.859px 140.859px 140.859px ">99,999</tspan></text>
            </g>
            <g transform="matrix(1.07181,0,0,1.02494,-884.671,294.809)">
                <text x="1226.69px" y="140.859px" style="font-family:'ArialMT', 'Arial', sans-serif;font-size:20px;fill:rgb(73,75,97);">9<tspan x="1236.22px 1245.74px 1255.26px 1259.22px 1268.74px 1278.27px " y="140.859px 140.859px 140.859px 140.859px 140.859px 140.859px ">99,999</tspan></text>
            </g>
            <g transform="matrix(1.07181,0,0,1.02494,-1304.09,294.809)">
                <text x="1228.29px" y="140.859px" style="font-family:'Arial-BoldMT', 'Arial', sans-serif;font-weight:700;font-size:20px;fill:rgb(64,64,64);">s<tspan x="1237.82px 1247.34px 1253.52px 1263.05px 1267px 1276.53px 1286.05px 1296.67px 1307.28px 1320.5px 1324.45px 1333.98px 1344.59px 1360.78px 1364.73px 1375.35px 1381.53px 1391.06px 1400.58px 1405.64px 1415.16px 1425.78px 1431.96px 1442.58px 1453.2px 1463.81px 1473.34px " y="140.859px 140.859px 140.859px 140.859px 140.859px 140.859px 140.859px 140.859px 140.859px 140.859px 140.859px 140.859px 140.859px 140.859px 140.859px 140.859px 140.859px 140.859px 140.859px 140.859px 140.859px 140.859px 140.859px 140.859px 140.859px 140.859px 140.859px ">ervicenow.com/great_product</tspan></text>
            </g>
            <g transform="matrix(1.07181,0,0,1.02494,-1388.72,294.809)">
                <text x="1274.31px" y="140.859px" style="font-family:'Arial-BoldMT', 'Arial', sans-serif;font-weight:700;font-size:20px;fill:rgb(64,64,64);">5<tspan x="1283.83px " y="140.859px ">.</tspan></text>
            </g>
            <g transform="matrix(1.07181,0,0,1.02494,-536.099,294.809)">
                <text x="1268.74px" y="140.859px" style="font-family:'ArialMT', 'Arial', sans-serif;font-size:20px;fill:rgb(73,75,97);">9<tspan x="1278.27px " y="140.859px ">9</tspan></text>
            </g>
            <g transform="matrix(1.07181,0,0,1.02494,-308.7,294.809)">
                <text x="1226.69px" y="140.859px" style="font-family:'ArialMT', 'Arial', sans-serif;font-size:20px;fill:rgb(73,75,97);">9<tspan x="1236.22px 1245.74px 1255.26px 1259.22px 1268.74px 1278.27px " y="140.859px 140.859px 140.859px 140.859px 140.859px 140.859px ">99,999</tspan></text>
            </g>
            <g transform="matrix(1.07181,0,0,1.02494,-823.763,46.6352)">
                <text x="1248.6px" y="140.859px" style="font-family:'ArialMT', 'Arial', sans-serif;font-size:20px;fill:rgb(153,151,150);">5<tspan x="1258.13px 1267.65px 1271.61px " y="140.859px 140.859px 140.859px ">0 %</tspan></text>
            </g>
            <g transform="matrix(1.07181,0,0,1.02494,-247.792,46.6352)">
                <text x="1258.13px" y="140.859px" style="font-family:'ArialMT', 'Arial', sans-serif;font-size:20px;fill:rgb(153,151,150);">1<tspan x="1267.65px 1271.61px " y="140.859px 140.859px "> %</tspan></text>
            </g>
            <g transform="matrix(1.07181,0,0,1.02494,-823.763,108.544)">
                <text x="1248.6px" y="140.859px" style="font-family:'ArialMT', 'Arial', sans-serif;font-size:20px;fill:rgb(153,151,150);">3<tspan x="1258.13px 1267.65px 1271.61px " y="140.859px 140.859px 140.859px ">5 %</tspan></text>
            </g>
            <g transform="matrix(1.07181,0,0,1.02494,-247.792,108.544)">
                <text x="1248.6px" y="140.859px" style="font-family:'ArialMT', 'Arial', sans-serif;font-size:20px;fill:rgb(153,151,150);">9<tspan x="1258.13px 1267.65px 1271.61px " y="140.859px 140.859px 140.859px ">9 %</tspan></text>
            </g>
            <g transform="matrix(1.07181,0,0,1.02494,-823.763,170.88)">
                <text x="1248.6px" y="140.859px" style="font-family:'ArialMT', 'Arial', sans-serif;font-size:20px;fill:rgb(153,151,150);">2<tspan x="1258.13px 1267.65px 1271.61px " y="140.859px 140.859px 140.859px ">5 %</tspan></text>
            </g>
            <g transform="matrix(1.07181,0,0,1.02494,-247.792,170.88)">
                <text x="1248.6px" y="140.859px" style="font-family:'ArialMT', 'Arial', sans-serif;font-size:20px;fill:rgb(153,151,150);">9<tspan x="1258.13px 1267.65px 1271.61px " y="140.859px 140.859px 140.859px ">7 %</tspan></text>
            </g>
            <g transform="matrix(1.07181,0,0,1.02494,-823.763,232.374)">
                <text x="1248.6px" y="140.859px" style="font-family:'ArialMT', 'Arial', sans-serif;font-size:20px;fill:rgb(153,151,150);">1<tspan x="1258.13px 1267.65px 1271.61px " y="140.859px 140.859px 140.859px ">0 %</tspan></text>
            </g>
            <g transform="matrix(1.07181,0,0,1.02494,-247.792,232.374)">
                <text x="1248.6px" y="140.859px" style="font-family:'ArialMT', 'Arial', sans-serif;font-size:20px;fill:rgb(153,151,150);">9<tspan x="1258.13px 1267.65px 1271.61px " y="140.859px 140.859px 140.859px ">5 %</tspan></text>
            </g>
            <g transform="matrix(1.07181,0,0,1.02494,-823.763,294.809)">
                <text x="1258.13px" y="140.859px" style="font-family:'ArialMT', 'Arial', sans-serif;font-size:20px;fill:rgb(153,151,150);">1<tspan x="1267.65px 1271.61px " y="140.859px 140.859px "> %</tspan></text>
            </g>
            <g transform="matrix(1.07181,0,0,1.02494,-247.792,294.809)">
                <text x="1248.6px" y="140.859px" style="font-family:'ArialMT', 'Arial', sans-serif;font-size:20px;fill:rgb(153,151,150);">3<tspan x="1258.13px 1267.65px 1271.61px " y="140.859px 140.859px 140.859px ">0 %</tspan></text>
            </g>
            <g transform="matrix(1.07181,0,0,1.02494,-58.0836,-19.5645)">
                <text x="29.909px" y="120.708px" style="font-family:'ArialMT', 'Arial', sans-serif;font-size:21.6px;fill:rgb(89,89,89);">Pages by views - <tspan x="198.786px 211.179px 215.977px " y="120.708px 120.708px 120.708px ">Tim</tspan>eframe</text>
            </g>
            <g transform="matrix(1.07181,0,0,1.02494,-57.0118,9.35296)">
                <text x="29.909px" y="120.708px" style="font-family:'ArialMT', 'Arial', sans-serif;font-size:20px;fill:rgb(89,89,89);">P<tspan x="42.449px 52.772px 63.095px 73.418px " y="120.708px 120.708px 120.708px 120.708px ">age:</tspan></text>
            </g>
            <g transform="matrix(1.07181,0,0,1.02494,73.0412,9.35296)">
                <text x="29.909px" y="120.708px" style="font-family:'ArialMT', 'Arial', sans-serif;font-size:20px;fill:rgb(89,89,89);">R<tspan x="44.153px 55.076px 69.319px 79.119px " y="120.708px 120.708px 120.708px 120.708px ">ows:</tspan></text>
            </g>
            <g transform="matrix(0.762193,0,0,0.728857,0.482027,19.6277)">
                <path d="M114.494,138.821L122.562,146.614L114.679,155.066" style="fill:none;stroke:rgb(153,153,153);stroke-width:2.81px;"/>
            </g>
            <g transform="matrix(1.07181,0,0,1.02494,134.33,9.35296)">
                <text x="29.909px" y="120.708px" style="font-family:'ArialMT', 'Arial', sans-serif;font-size:20px;fill:rgb(49,122,255);">8</text>
            </g>
            <g transform="matrix(1.07181,0,0,1.02494,154.146,9.35296)">
                <text x="29.909px" y="120.708px" style="font-family:'ArialMT', 'Arial', sans-serif;font-size:20px;fill:rgb(89,89,89);">1</text>
                <text x="38.633px" y="120.708px" style="font-family:'ArialMT', 'Arial', sans-serif;font-size:20px;fill:rgb(89,89,89);">-</text>
                <text x="46.293px" y="120.708px" style="font-family:'ArialMT', 'Arial', sans-serif;font-size:20px;fill:rgb(89,89,89);">8</text>
                <text x="63.729px" y="120.708px" style="font-family:'ArialMT', 'Arial', sans-serif;font-size:20px;fill:rgb(89,89,89);">o</text>
                <text x="74.652px" y="120.708px" style="font-family:'ArialMT', 'Arial', sans-serif;font-size:20px;fill:rgb(89,89,89);">f</text>
                <text x="86.522px" y="120.708px" style="font-family:'ArialMT', 'Arial', sans-serif;font-size:20px;fill:rgb(89,89,89);">9</text>
                <text x="97.045px" y="120.708px" style="font-family:'ArialMT', 'Arial', sans-serif;font-size:20px;fill:rgb(89,89,89);">9</text>
            </g>
            <g transform="matrix(1.07181,0,0,1.02494,12.3317,9.35296)">
                <text x="29.909px" y="120.708px" style="font-family:'ArialMT', 'Arial', sans-serif;font-size:20px;fill:rgb(89,89,89);">/</text>
                <text x="38.223px" y="120.708px" style="font-family:'ArialMT', 'Arial', sans-serif;font-size:20px;fill:rgb(89,89,89);">9</text>
                <text x="48.546px" y="120.708px" style="font-family:'ArialMT', 'Arial', sans-serif;font-size:20px;fill:rgb(89,89,89);">9</text>
            </g>
            <g transform="matrix(1.07181,0,0,1.02494,-1.54074,9.35296)">
                <text x="29.909px" y="120.708px" style="font-family:'ArialMT', 'Arial', sans-serif;font-size:20px;fill:rgb(49,122,255);">1</text>
            </g>
            <g transform="matrix(1.07181,0,0,1.02494,-33.7878,-28.9842)">
                <text x="317.809px" y="158.112px" style="font-family:'ArialMT', 'Arial', sans-serif;font-size:16px;fill:rgb(178,178,178);">Sep 1</text>
            </g>
            <g transform="matrix(1.07181,0,0,1.02494,253.162,-28.9842)">
                <text x="317.809px" y="158.112px" style="font-family:'ArialMT', 'Arial', sans-serif;font-size:16px;fill:rgb(178,178,178);">Sep 1</text>
            </g>
            <g transform="matrix(1.07181,0,0,1.02494,545.708,-28.9842)">
                <text x="317.809px" y="158.112px" style="font-family:'ArialMT', 'Arial', sans-serif;font-size:16px;fill:rgb(178,178,178);">Sep 1</text>
            </g>
            <g transform="matrix(1.07181,0,0,1.02494,160.92,-28.9842)">
                <text x="317.809px" y="158.112px" style="font-family:'ArialMT', 'Arial', sans-serif;font-size:16px;fill:rgb(178,178,178);">Sep 30</text>
            </g>
            <g transform="matrix(1.07181,0,0,1.02494,447.87,-28.9842)">
                <text x="317.809px" y="158.112px" style="font-family:'ArialMT', 'Arial', sans-serif;font-size:16px;fill:rgb(178,178,178);">Sep 30</text>
            </g>
            <g transform="matrix(1.13758,0,0,1.02494,-80.5886,224.282)">
                <path d="M25.791,234.491L1124.44,234.491" style="fill:none;stroke:rgb(202,202,202);stroke-width:1.94px;"/>
            </g>
            <g transform="matrix(1.07181,0,0,1.42099,-86.7093,-23.3948)">
                <path d="M350.094,-1.752L350.094,488.878" style="fill:none;stroke:rgb(202,202,202);stroke-width:1.65px;stroke-linecap:round;stroke-linejoin:round;"/>
            </g>
            <g transform="matrix(1.07181,0,0,1.42099,201.411,-23.3948)">
                <path d="M350.094,-1.752L350.094,488.878" style="fill:none;stroke:rgb(202,202,202);stroke-width:1.65px;stroke-linecap:round;stroke-linejoin:round;"/>
            </g>
            <g transform="matrix(1.13758,0,0,1.02494,-80.5886,-23.8793)">
                <path d="M25.791,234.491L1124.44,234.491" style="fill:none;stroke:rgb(202,202,202);stroke-width:1.94px;"/>
            </g>
            <g transform="matrix(1.13612,0,0,1.0349,-78.9397,-87.5217)">
                <path d="M25.791,234.491L1124.44,234.491" style="fill:none;stroke:rgb(202,202,202);stroke-width:1.93px;"/>
            </g>
            <g transform="matrix(1.13758,0,0,1.02494,-80.5886,38.8035)">
                <path d="M25.791,234.491L1124.44,234.491" style="fill:none;stroke:rgb(202,202,202);stroke-width:1.94px;"/>
            </g>
            <g transform="matrix(1.13758,0,0,1.02494,-80.5886,101.2)">
                <path d="M25.791,234.491L1124.44,234.491" style="fill:none;stroke:rgb(202,202,202);stroke-width:1.94px;"/>
            </g>
            <g transform="matrix(1.13758,0,0,1.02494,-80.5886,162.877)">
                <path d="M25.791,234.491L1124.44,234.491" style="fill:none;stroke:rgb(202,202,202);stroke-width:1.94px;"/>
            </g>
            <g transform="matrix(1.07181,0,0,1.42099,489.532,-23.3948)">
                <path d="M350.094,-1.752L350.094,488.878" style="fill:none;stroke:rgb(202,202,202);stroke-width:1.65px;stroke-linecap:round;stroke-linejoin:round;"/>
            </g>
            <g transform="matrix(1.49455,0,0,1.42918,629.656,-23.3805)">
                <path d="M350.094,-1.752L350.094,488.878" style="fill:none;stroke:rgb(202,202,202);stroke-width:1.43px;stroke-linecap:round;stroke-linejoin:round;"/>
            </g>
            <g transform="matrix(1.07181,0,0,1.02494,-884.671,356.315)">
                <text x="1226.69px" y="140.859px" style="font-family:'ArialMT', 'Arial', sans-serif;font-size:20px;fill:rgb(73,75,97);">9<tspan x="1236.22px 1245.74px 1255.26px 1259.22px 1268.74px 1278.27px " y="140.859px 140.859px 140.859px 140.859px 140.859px 140.859px ">99,999</tspan></text>
            </g>
            <g transform="matrix(1.07181,0,0,1.02494,-1304.09,356.315)">
                <text x="1228.29px" y="140.859px" style="font-family:'Arial-BoldMT', 'Arial', sans-serif;font-weight:700;font-size:20px;fill:rgb(64,64,64);">s<tspan x="1237.82px 1247.34px 1253.52px 1263.05px 1267px 1276.53px 1286.05px 1296.67px 1307.28px 1320.5px 1324.45px 1333.98px 1344.59px 1360.78px 1364.73px 1374.26px 1384.87px 1395.49px 1400.55px 1411.17px 1420.69px 1426.87px 1436.4px 1447.01px 1453.2px 1463.81px 1474.43px " y="140.859px 140.859px 140.859px 140.859px 140.859px 140.859px 140.859px 140.859px 140.859px 140.859px 140.859px 140.859px 140.859px 140.859px 140.859px 140.859px 140.859px 140.859px 140.859px 140.859px 140.859px 140.859px 140.859px 140.859px 140.859px 140.859px 140.859px ">ervicenow.com/another_produ</tspan></text>
            </g>
            <g transform="matrix(1.07181,0,0,1.02494,-1388.72,356.315)">
                <text x="1274.31px" y="140.859px" style="font-family:'Arial-BoldMT', 'Arial', sans-serif;font-weight:700;font-size:20px;fill:rgb(64,64,64);">6<tspan x="1283.83px " y="140.859px ">.</tspan></text>
            </g>
            <g transform="matrix(1.07181,0,0,1.02494,-536.099,356.315)">
                <text x="1268.74px" y="140.859px" style="font-family:'ArialMT', 'Arial', sans-serif;font-size:20px;fill:rgb(73,75,97);">9<tspan x="1278.27px " y="140.859px ">9</tspan></text>
            </g>
            <g transform="matrix(1.07181,0,0,1.02494,-308.7,356.315)">
                <text x="1226.69px" y="140.859px" style="font-family:'ArialMT', 'Arial', sans-serif;font-size:20px;fill:rgb(73,75,97);">9<tspan x="1236.22px 1245.74px 1255.26px 1259.22px 1268.74px 1278.27px " y="140.859px 140.859px 140.859px 140.859px 140.859px 140.859px ">99,999</tspan></text>
            </g>
            <g transform="matrix(1.07181,0,0,1.02494,-884.671,417.809)">
                <text x="1226.69px" y="140.859px" style="font-family:'ArialMT', 'Arial', sans-serif;font-size:20px;fill:rgb(73,75,97);">9<tspan x="1236.22px 1245.74px 1255.26px 1259.22px 1268.74px 1278.27px " y="140.859px 140.859px 140.859px 140.859px 140.859px 140.859px ">99,999</tspan></text>
            </g>
            <g transform="matrix(1.07181,0,0,1.02494,-1304.09,417.809)">
                <text x="1228.29px" y="140.859px" style="font-family:'Arial-BoldMT', 'Arial', sans-serif;font-weight:700;font-size:20px;fill:rgb(64,64,64);">s<tspan x="1237.82px 1247.34px 1253.52px 1263.05px 1267px 1276.53px 1286.05px 1296.67px 1307.28px 1320.5px 1324.45px 1333.98px 1344.59px 1360.78px 1364.73px 1380.92px 1391.53px 1397.72px 1407.24px 1416.76px 1427.38px 1433.56px 1444.18px 1454.8px 1465.41px 1474.94px " y="140.859px 140.859px 140.859px 140.859px 140.859px 140.859px 140.859px 140.859px 140.859px 140.859px 140.859px 140.859px 140.859px 140.859px 140.859px 140.859px 140.859px 140.859px 140.859px 140.859px 140.859px 140.859px 140.859px 140.859px 140.859px 140.859px ">ervicenow.com/more_product</tspan></text>
            </g>
            <g transform="matrix(1.07181,0,0,1.02494,-1388.72,417.809)">
                <text x="1274.31px" y="140.859px" style="font-family:'Arial-BoldMT', 'Arial', sans-serif;font-weight:700;font-size:20px;fill:rgb(64,64,64);">7<tspan x="1283.83px " y="140.859px ">.</tspan></text>
            </g>
            <g transform="matrix(1.07181,0,0,1.02494,-536.099,417.809)">
                <text x="1268.74px" y="140.859px" style="font-family:'ArialMT', 'Arial', sans-serif;font-size:20px;fill:rgb(73,75,97);">9<tspan x="1278.27px " y="140.859px ">9</tspan></text>
            </g>
            <g transform="matrix(1.07181,0,0,1.02494,-308.7,417.809)">
                <text x="1226.69px" y="140.859px" style="font-family:'ArialMT', 'Arial', sans-serif;font-size:20px;fill:rgb(73,75,97);">9<tspan x="1236.22px 1245.74px 1255.26px 1259.22px 1268.74px 1278.27px " y="140.859px 140.859px 140.859px 140.859px 140.859px 140.859px ">99,999</tspan></text>
            </g>
            <g transform="matrix(1.07181,0,0,1.02494,-884.671,480.244)">
                <text x="1226.69px" y="140.859px" style="font-family:'ArialMT', 'Arial', sans-serif;font-size:20px;fill:rgb(73,75,97);">9<tspan x="1236.22px 1245.74px 1255.26px 1259.22px 1268.74px 1278.27px " y="140.859px 140.859px 140.859px 140.859px 140.859px 140.859px ">99,999</tspan></text>
            </g>
            <g transform="matrix(1.07181,0,0,1.02494,-1304.09,480.244)">
                <text x="1228.29px" y="140.859px" style="font-family:'Arial-BoldMT', 'Arial', sans-serif;font-weight:700;font-size:20px;fill:rgb(64,64,64);">s<tspan x="1237.82px 1247.34px 1253.52px 1263.05px 1267px 1276.53px 1286.05px 1296.67px 1307.28px 1320.5px 1324.45px 1333.98px 1344.59px 1360.78px 1364.73px 1374.26px 1384.87px 1401.06px 1410.58px 1420.1px 1430.72px 1436.9px 1447.52px 1458.14px 1468.75px 1478.28px " y="140.859px 140.859px 140.859px 140.859px 140.859px 140.859px 140.859px 140.859px 140.859px 140.859px 140.859px 140.859px 140.859px 140.859px 140.859px 140.859px 140.859px 140.859px 140.859px 140.859px 140.859px 140.859px 140.859px 140.859px 140.859px 140.859px ">ervicenow.com/some_product</tspan></text>
            </g>
            <g transform="matrix(1.07181,0,0,1.02494,-1388.72,480.244)">
                <text x="1274.31px" y="140.859px" style="font-family:'Arial-BoldMT', 'Arial', sans-serif;font-weight:700;font-size:20px;fill:rgb(64,64,64);">8<tspan x="1283.83px " y="140.859px ">.</tspan></text>
            </g>
            <g transform="matrix(1.07181,0,0,1.02494,-536.099,480.244)">
                <text x="1268.74px" y="140.859px" style="font-family:'ArialMT', 'Arial', sans-serif;font-size:20px;fill:rgb(73,75,97);">9<tspan x="1278.27px " y="140.859px ">9</tspan></text>
            </g>
            <g transform="matrix(1.07181,0,0,1.02494,-308.7,480.244)">
                <text x="1226.69px" y="140.859px" style="font-family:'ArialMT', 'Arial', sans-serif;font-size:20px;fill:rgb(73,75,97);">9<tspan x="1236.22px 1245.74px 1255.26px 1259.22px 1268.74px 1278.27px " y="140.859px 140.859px 140.859px 140.859px 140.859px 140.859px ">99,999</tspan></text>
            </g>
            <g transform="matrix(1.07181,0,0,1.02494,-823.763,356.315)">
                <text x="1258.13px" y="140.859px" style="font-family:'ArialMT', 'Arial', sans-serif;font-size:20px;fill:rgb(153,151,150);">1<tspan x="1267.65px 1271.61px " y="140.859px 140.859px "> %</tspan></text>
            </g>
            <g transform="matrix(1.07181,0,0,1.02494,-247.792,356.315)">
                <text x="1248.6px" y="140.859px" style="font-family:'ArialMT', 'Arial', sans-serif;font-size:20px;fill:rgb(153,151,150);">3<tspan x="1258.13px 1267.65px 1271.61px " y="140.859px 140.859px 140.859px ">0 %</tspan></text>
            </g>
            <g transform="matrix(1.07181,0,0,1.02494,-823.763,417.809)">
                <text x="1258.13px" y="140.859px" style="font-family:'ArialMT', 'Arial', sans-serif;font-size:20px;fill:rgb(153,151,150);">1<tspan x="1267.65px 1271.61px " y="140.859px 140.859px "> %</tspan></text>
            </g>
            <g transform="matrix(1.07181,0,0,1.02494,-247.792,417.809)">
                <text x="1248.6px" y="140.859px" style="font-family:'ArialMT', 'Arial', sans-serif;font-size:20px;fill:rgb(153,151,150);">3<tspan x="1258.13px 1267.65px 1271.61px " y="140.859px 140.859px 140.859px ">0 %</tspan></text>
            </g>
            <g transform="matrix(1.07181,0,0,1.02494,-823.763,480.244)">
                <text x="1258.13px" y="140.859px" style="font-family:'ArialMT', 'Arial', sans-serif;font-size:20px;fill:rgb(153,151,150);">1<tspan x="1267.65px 1271.61px " y="140.859px 140.859px "> %</tspan></text>
            </g>
            <g transform="matrix(1.07181,0,0,1.02494,-247.792,480.244)">
                <text x="1248.6px" y="140.859px" style="font-family:'ArialMT', 'Arial', sans-serif;font-size:20px;fill:rgb(153,151,150);">3<tspan x="1258.13px 1267.65px 1271.61px " y="140.859px 140.859px 140.859px ">0 %</tspan></text>
            </g>
            <g transform="matrix(1.13758,0,0,1.02494,-80.6966,410.244)">
                <path d="M25.791,234.491L1124.44,234.491" style="fill:none;stroke:rgb(202,202,202);stroke-width:1.94px;"/>
            </g>
            <g transform="matrix(1.13758,0,0,1.02494,-80.5886,286.635)">
                <path d="M25.791,234.491L1124.44,234.491" style="fill:none;stroke:rgb(202,202,202);stroke-width:1.94px;"/>
            </g>
            <g transform="matrix(1.13758,0,0,1.02494,-80.5886,348.312)">
                <path d="M25.791,234.491L1124.44,234.491" style="fill:none;stroke:rgb(202,202,202);stroke-width:1.94px;"/>
            </g>
        </g>
    </g>
</svg>
