<?xml version="1.0" encoding="UTF-8" standalone="no"?>
<!DOCTYPE svg PUBLIC "-//W3C//DTD SVG 1.1//EN" "http://www.w3.org/Graphics/SVG/1.1/DTD/svg11.dtd">
<svg width="100%" height="100%" viewBox="0 0 760 549" version="1.1" xmlns="http://www.w3.org/2000/svg" xmlns:xlink="http://www.w3.org/1999/xlink" xml:space="preserve" xmlns:serif="http://www.serif.com/" style="fill-rule:evenodd;clip-rule:evenodd;stroke-linejoin:round;stroke-miterlimit:1.5;">
    <g id="Artboard1" transform="matrix(1.62555,0,0,1.5147,-94.1132,-51.6108)">
        <rect x="57.896" y="34.073" width="467.164" height="362.102" style="fill:none;"/>
        <clipPath id="_clip1">
            <rect x="57.896" y="34.073" width="467.164" height="362.102"/>
        </clipPath>
        <g clip-path="url(#_clip1)">
            <g transform="matrix(0.615176,0,0,-0.660195,65.5444,329.922)">
                <path d="M63.736,317.224C63.653,301.764 63.597,288.468 63.597,281.079C63.597,235.638 113.595,280.745 113.595,235.303L113.595,35.135C113.595,18.365 122.581,7.65 139.351,7.65L660.194,7.65C665.212,7.65 670.025,5.657 673.574,2.108C677.122,-1.44 679.116,-6.253 679.116,-11.272L679.116,-138.941" style="fill:none;stroke:rgb(129,181,161);stroke-width:3px;"/>
            </g>
            <g transform="matrix(0.615176,0,0,-0.660195,151.669,369.534)">
                <path d="M450.198,-38.647L450.198,109.701C450.198,113.37 448.741,116.889 446.146,119.483C443.552,122.078 440.033,123.535 436.364,123.535C416.049,123.535 380.532,123.535 380.532,123.535" style="fill:none;stroke:rgb(129,181,161);stroke-width:3px;stroke-linecap:round;"/>
            </g>
            <g transform="matrix(0.961016,0,0,-1.03134,93.8642,415.384)">
                <path d="M167.143,123.535L-51.026,123.535" style="fill:none;stroke:rgb(129,181,161);stroke-width:1.92px;stroke-linecap:round;"/>
            </g>
            <g transform="matrix(-2.17821e-16,0.238309,0.320191,3.86255e-16,-5.34879,364.88)">
                <path d="M-51.026,123.535L-51.026,399.761C-51.026,423.729 -23.009,443.159 11.551,443.159C88.367,443.159 208.565,443.159 208.565,443.159" style="fill:none;stroke:rgb(129,181,161);stroke-width:6.7px;stroke-linecap:round;"/>
            </g>
            <g transform="matrix(0.743517,0,0,-0.660195,92.3931,329.922)">
                <path d="M149.813,489.497L149.813,434.011C149.813,422.495 157.537,413.159 167.066,413.159C221.628,413.159 390.048,413.159 444.61,413.159C454.138,413.159 461.863,403.823 461.863,392.307C461.863,365.366 461.863,321.884 461.863,321.884" style="fill:none;stroke:rgb(129,181,161);stroke-width:2.7px;stroke-linecap:round;"/>
            </g>
            <g transform="matrix(0.615176,0,0,-0.660195,151.669,402.543)">
                <path d="M461.863,355.316L461.863,303.629C461.863,299.128 463.651,294.811 466.833,291.628C470.016,288.446 474.333,286.657 478.834,286.657C508.622,286.657 570.523,286.657 606.1,286.657" style="fill:none;stroke:rgb(129,181,161);stroke-width:3px;"/>
            </g>
            <g transform="matrix(0.615176,0,0,-0.660195,152.148,370.283)">
                <path d="M379.48,96.258C379.48,91.306 375.465,87.292 370.513,87.292C335.754,87.292 210.115,87.292 175.356,87.292C170.404,87.292 166.389,91.306 166.389,96.258C166.389,110.562 166.389,138.383 166.389,152.686C166.389,157.638 170.404,161.652 175.356,161.652C210.115,161.652 335.754,161.652 370.513,161.652C375.465,161.652 379.48,157.638 379.48,152.686C379.48,138.383 379.48,110.562 379.48,96.258Z" style="fill:none;stroke:rgb(129,181,161);stroke-width:3px;stroke-linecap:round;"/>
            </g>
            <g transform="matrix(0.615176,0,0,-0.660195,267.865,225.096)">
                <path d="M379.48,96.258C379.48,91.306 375.465,87.292 370.513,87.292C335.754,87.292 210.115,87.292 175.356,87.292C170.404,87.292 166.389,91.306 166.389,96.258C166.389,110.562 166.389,138.383 166.389,152.686C166.389,157.638 170.404,161.652 175.356,161.652C210.115,161.652 335.754,161.652 370.513,161.652C375.465,161.652 379.48,157.638 379.48,152.686C379.48,138.383 379.48,110.562 379.48,96.258Z" style="fill:none;stroke:rgb(129,181,161);stroke-width:3px;stroke-linecap:round;"/>
            </g>
            <g transform="matrix(0.615176,0,0,-0.660195,-62.8849,178.075)">
                <path d="M379.48,96.258C379.48,91.306 375.465,87.292 370.513,87.292C335.754,87.292 210.115,87.292 175.356,87.292C170.404,87.292 166.389,91.306 166.389,96.258C166.389,110.562 166.389,138.383 166.389,152.686C166.389,157.638 170.404,161.652 175.356,161.652C210.115,161.652 335.754,161.652 370.513,161.652C375.465,161.652 379.48,157.638 379.48,152.686C379.48,138.383 379.48,110.562 379.48,96.258Z" style="fill:none;stroke:rgb(129,181,161);stroke-width:3px;stroke-linecap:round;"/>
            </g>
        </g>
    </g>
</svg>
