<?xml version="1.0" encoding="UTF-8" standalone="no"?>
<!DOCTYPE svg PUBLIC "-//W3C//DTD SVG 1.1//EN" "http://www.w3.org/Graphics/SVG/1.1/DTD/svg11.dtd">
<svg width="100%" height="100%" viewBox="0 0 132 20" version="1.1" xmlns="http://www.w3.org/2000/svg" xmlns:xlink="http://www.w3.org/1999/xlink" xml:space="preserve" xmlns:serif="http://www.serif.com/" style="fill-rule:evenodd;clip-rule:evenodd;stroke-linejoin:round;stroke-miterlimit:2;">
    <path d="M31.879,6.414C30.485,6.414 29.289,6.912 28.293,7.709L28.293,6.613L24.906,6.613L24.906,19.464L28.392,19.464L28.392,11.295C28.891,10.598 30.086,9.701 31.58,9.701C32.078,9.701 32.577,9.801 32.975,9.9L32.975,6.613C32.577,6.513 32.178,6.414 31.879,6.414" style="fill:rgb(41,62,64);"/>
    <path d="M1.893,15.479C2.789,16.276 4.184,16.774 5.38,16.774C6.276,16.774 7.073,16.276 7.073,15.678C7.073,13.686 0.797,14.383 0.797,10.299C0.797,7.808 3.188,6.314 5.678,6.314C7.372,6.314 9.165,6.912 10.062,7.609L8.468,10.1C7.771,9.701 6.974,9.203 5.977,9.203C4.981,9.203 4.284,9.602 4.284,10.299C4.284,11.992 10.56,11.295 10.56,15.778C10.56,18.269 8.169,19.763 5.479,19.763C3.686,19.763 1.793,19.165 0.299,18.069L1.893,15.479Z" style="fill:rgb(41,62,64);"/>
    <path d="M23.411,12.889C23.411,9.303 20.921,6.314 17.334,6.314C13.549,6.314 11.058,9.502 11.058,12.989C11.058,17.073 13.947,19.663 17.733,19.663C19.725,19.663 21.718,18.866 23.013,17.372L21.02,15.38C20.423,16.077 19.227,16.874 17.832,16.874C16.039,16.874 14.545,15.579 14.346,13.786L23.212,13.786C23.411,13.586 23.411,13.288 23.411,12.889ZM14.645,11.395C14.844,10.199 16.039,9.103 17.434,9.103C18.829,9.103 19.825,10.199 20.024,11.395L14.645,11.395Z" style="fill:rgb(41,62,64);"/>
    <path d="M41.045,14.483L44.531,6.613L48.118,6.613L42.24,19.464L39.849,19.464L33.971,6.613L37.458,6.613L41.045,14.483Z" style="fill:rgb(41,62,64);"/>
    <path d="M51.007,0.536C52.302,0.536 53.298,1.532 53.298,2.728C53.298,4.023 52.302,4.919 51.007,4.919C49.712,4.919 48.815,3.923 48.815,2.728C48.815,1.432 49.712,0.536 51.007,0.536" style="fill:rgb(41,62,64);"/>
    <rect x="49.313" y="6.613" width="3.487" height="12.851" style="fill:rgb(41,62,64);"/>
    <path d="M66.946,16.774C65.452,18.767 63.559,19.663 61.168,19.663C57.183,19.663 54.294,16.675 54.294,12.989C54.294,9.203 57.283,6.314 61.168,6.314C63.46,6.314 65.352,7.41 66.548,8.904L64.257,10.996C63.559,10.1 62.563,9.502 61.368,9.502C59.375,9.502 57.881,11.096 57.881,12.989C57.881,14.981 59.275,16.475 61.368,16.475C62.762,16.475 63.858,15.678 64.456,14.782L66.946,16.774Z" style="fill:rgb(41,62,64);"/>
    <path d="M79.399,17.372C78.104,18.866 76.112,19.663 74.119,19.663C70.334,19.663 67.445,17.073 67.445,12.989C67.445,9.402 69.835,6.314 73.721,6.314C77.208,6.314 79.798,9.303 79.798,12.889C79.798,13.288 79.798,13.586 79.698,13.885L70.732,13.885C70.931,15.678 72.426,16.974 74.219,16.974C75.614,16.974 76.809,16.177 77.407,15.479L79.399,17.372ZM76.211,11.395C76.112,10.299 75.115,9.103 73.621,9.103C72.226,9.103 71.031,10.199 70.832,11.395L76.211,11.395Z" style="fill:rgb(41,62,64);"/>
    <path d="M81.093,19.464L81.093,6.613L84.38,6.613L84.38,7.709C85.377,6.912 86.572,6.414 87.967,6.414C89.76,6.414 91.354,7.211 92.45,8.506C93.247,9.502 93.845,10.797 93.845,12.989L93.845,19.564L90.358,19.564L90.358,12.69C90.358,11.395 90.059,10.697 89.561,10.299C89.063,9.801 88.465,9.502 87.568,9.502C86.174,9.502 84.978,10.398 84.38,11.096L84.38,19.464C84.48,19.464 81.093,19.464 81.093,19.464Z" style="fill:rgb(41,62,64);"/>
    <path d="M102.711,6.314C98.527,6.314 95.239,9.602 95.239,13.786C95.239,15.977 96.136,17.97 97.531,19.365C98.029,19.863 98.925,19.863 99.523,19.464C100.32,18.767 101.515,18.368 102.711,18.368C104.006,18.368 105.002,18.767 105.899,19.464C106.497,19.962 107.294,19.863 107.891,19.265C109.286,17.87 110.183,15.977 110.183,13.786C110.083,9.701 106.795,6.314 102.711,6.314M102.611,17.671C100.32,17.671 98.826,15.977 98.826,13.885C98.826,11.793 100.32,10.1 102.611,10.1C104.903,10.1 106.397,11.793 106.397,13.885C106.397,15.977 104.903,17.671 102.611,17.671" style="fill:rgb(129,181,161);"/>
    <path d="M116.957,19.464L114.367,19.464L109.286,6.613L112.673,6.613L115.463,13.985L118.252,6.613L121.141,6.613L123.831,13.985L126.62,6.613L130.107,6.613L125.026,19.464L122.436,19.464L119.647,12.192L116.957,19.464Z" style="fill:rgb(41,62,64);"/>
    <g transform="matrix(0.348763,0,0,0.369359,128.526,19.3606)">
        <text x="0px" y="0px" style="font-family:'Helvetica';font-size:12px;fill:rgb(41,62,64);">®</text>
    </g>
</svg>
