<?xml version="1.0" encoding="UTF-8" standalone="no"?>
<!DOCTYPE svg PUBLIC "-//W3C//DTD SVG 1.1//EN" "http://www.w3.org/Graphics/SVG/1.1/DTD/svg11.dtd">
<svg width="100%" height="100%" viewBox="0 0 520 520" version="1.1" xmlns="http://www.w3.org/2000/svg" xmlns:xlink="http://www.w3.org/1999/xlink" xml:space="preserve" xmlns:serif="http://www.serif.com/" style="fill-rule:evenodd;clip-rule:evenodd;stroke-linejoin:round;stroke-miterlimit:2;">
    <g transform="matrix(1,0,0,1,100,70)">
        <g>
            <path id="Path" d="M8,250L8,175L83,175L83,250L8,250Z" style="fill:white;fill-rule:nonzero;"/>
            <path id="Path1" serif:id="Path" d="M237,250L237,175L312,175L312,250L237,250Z" style="fill:white;fill-rule:nonzero;"/>
            <path id="Path2" serif:id="Path" d="M308,5L12,5L8,136L28,139C32,100 42,72 58,53C75,34 99,23 130,22L130,295C130,319 127,334 120,341C114,347 104,351 90,352C86,352 79,353 69,353L69,374L252,374L252,353C242,353 235,353 231,352C217,351 207,347 201,341C194,334 191,318 191,295L191,23C222,24 246,34 263,54C280,73 290,101 293,140L313,137L308,5Z" style="fill:white;fill-rule:nonzero;"/>
        </g>
    </g>
</svg>
