<?xml version="1.0" encoding="UTF-8" standalone="no"?>
<!DOCTYPE svg PUBLIC "-//W3C//DTD SVG 1.1//EN" "http://www.w3.org/Graphics/SVG/1.1/DTD/svg11.dtd">
<svg width="100%" height="100%" version="1.1" xmlns="http://www.w3.org/2000/svg" xml:space="preserve" xmlns:serif="http://www.serif.com/" viewBox="0 0 308.9 40">
	<path d="M294.1 18.3c.6-3.1 2.5-4.7 5.3-4.7 2.9 0 4.8 2.2 4.8 4.7h-10.1zm5.1-8.8c-5.9 0-10 4.9-10 11.3 0 6.6 4.2 11.2 10.2 11.2 5.2 0 8.3-2.9 9-7.2h-4.5c-.5 2.1-2.2 3.1-4.6 3.1-3.1 0-5.3-2.2-5.4-6h14.4c.4 0 .6-.3.6-.6v-1.2c0-6.3-3.6-10.6-9.7-10.6zm-20.4 0c-2.9 0-4.9 1.1-6.4 2.9-1.1-1.6-3.2-2.9-5.6-2.9-2.4 0-4.3.9-5.4 2.2v-1.3c0-.2-.2-.5-.5-.5h-4.4v21.5h4.9V17.1c.5-2.2 2.1-3.2 3.9-3.2 2.4 0 3.6 1.8 3.6 4.4v13.2h4.9V17.1c.5-2.2 2.1-3.2 3.9-3.2 2.4 0 3.6 1.8 3.6 4.4v13.2h4.9v-14c-.3-4.9-2.9-8-7.4-8zm-35.7 18.3c-3.5 0-5.4-3-5.4-7.1s1.9-7.1 5.4-7.1c3.6 0 5.4 3 5.4 7.1s-1.9 7.1-5.4 7.1zm0-18.3c-6 0-10.2 4.6-10.2 11.3S237.1 32 243.1 32c6 0 10.2-4.6 10.2-11.3s-4.2-11.2-10.2-11.2zM224.5 14h-14.4V1.8h-5v29.7h5v-13h14.4v13.1h5V1.8h-5V14zm-28.9-3.6v1.2c-1-1.2-3.1-2.2-5.5-2.2-6.3 0-10 5.3-10 10.9s3.6 10.9 10 10.9c2.4 0 4.5-1.1 5.5-2.2v3.5c0 1.7-1.4 3.1-3.1 3.1h-8.3c-.2 0-.5.2-.5.5v4h9.4c4 0 7.3-3.2 7.3-7.3V10h-4.2c-.4 0-.6.2-.6.4zm0 14.1C194.8 26 193 27 191 27c-3.7 0-5.9-2.8-5.9-6.6s2.2-6.6 5.9-6.6c2 0 3.9 1.1 4.6 2.5v8.2zm-26.3-15c-2.5 0-4.6 1.2-5.8 2.5v-1.5c0-.2-.2-.5-.5-.5h-4.4v21.5h4.9V17.4c.5-2.2 2.4-3.5 4.5-3.5 2.8 0 4.1 1.8 4.1 4.4v13.2h4.9v-14c-.1-4.8-2.8-8-7.7-8zm-20.1 22h4.9V10h-4.9v21.5zm2.4-31c-1.6 0-3 1.3-3 2.9s1.4 2.9 3 2.9 3-1.3 3-2.9-1.4-2.9-3-2.9zm-11.9 24.3c-.8 1.7-2.7 2.9-4.6 2.9-3.7 0-5.9-2.9-5.9-6.9s2.2-6.9 5.9-6.9c2 0 3.9 1.2 4.6 2.9v8zm0-13c-1-1.2-3.1-2.3-5.5-2.3-6.3 0-10 5.1-10 11.3S128 32 134.2 32c2.4 0 4.5-1.1 5.5-2.3v1.4c0 .2.2.5.5.5h4.4V0h-4.9v11.8zm-26.4-2.3c-2.5 0-4.6 1.2-5.8 2.5v-1.5c0-.2-.2-.5-.5-.5h-4.4v21.5h4.9V17.4c.5-2.2 2.4-3.5 4.5-3.5 2.8 0 4.1 1.8 4.1 4.4v13.2h4.9v-14c-.1-4.8-2.8-8-7.7-8zm-28.8 8.8c.6-3.1 2.5-4.7 5.3-4.7 2.9 0 4.8 2.2 4.8 4.7H84.5zm5.2-8.8c-5.9 0-10 4.9-10 11.3 0 6.6 4.2 11.2 10.2 11.2 5.2 0 8.3-2.9 9-7.2h-4.5c-.5 2.1-2.2 3.1-4.6 3.1-3.1 0-5.3-2.2-5.4-6h14.4c.4 0 .6-.3.6-.6v-1.2c0-6.3-3.6-10.6-9.7-10.6zM63.4 1.8h-5v29.1c0 .4.3.6.6.6h18.7V27H63.4V1.8z" fill="#ffffff"></path>
	<path d="M0 31.5v-6.3h14.1v6.3H0zm12.4-12.6v-6.3h14.1v6.3H12.4zM24.9 6.3V0H39v6.3H24.9z" fill="#ffffff"></path>
</svg>
