<?xml version="1.0" encoding="UTF-8" standalone="no"?>
<!DOCTYPE svg PUBLIC "-//W3C//DTD SVG 1.1//EN" "http://www.w3.org/Graphics/SVG/1.1/DTD/svg11.dtd">
<svg width="100%" height="100%" viewBox="0 0 786 158" version="1.1" xmlns="http://www.w3.org/2000/svg" xmlns:xlink="http://www.w3.org/1999/xlink" xml:space="preserve" xmlns:serif="http://www.serif.com/" style="fill-rule:evenodd;clip-rule:evenodd;">
    <g transform="matrix(1,0,0,1,-234.044,-265.417)">
        <g id="Artboard1" transform="matrix(3.84858,0,0,0.726917,234.044,268.325)">
            <rect x="0" y="-4" width="204" height="217" style="fill:none;"/>
            <clipPath id="_clip1">
                <rect x="0" y="-4" width="204" height="217"/>
            </clipPath>
            <g clip-path="url(#_clip1)">
                <g transform="matrix(0.777453,0,0,0.971383,0.467206,2.72223)">
                    <g id="edge" transform="matrix(0.247395,0,0,1.04831,-5.04669e-14,-8.19324)">
                        <path d="M5.303,42.959L53.359,183.897L202.545,148.393L194.297,164.89L43.317,209L1,64.117L5.303,42.959Z" style="fill:url(#_Linear2);fill-rule:nonzero;"/>
                    </g>
                    <g id="left-edge" serif:id="left edge" transform="matrix(0.247395,0,0,1.04831,-5.04669e-14,-8.19324)">
                        <path d="M53.359,183.897L43.317,209L1,64.476L5.303,43.317L53.359,183.897Z" style="fill:url(#_Linear3);fill-rule:nonzero;"/>
                    </g>
                    <g id="L-stem" transform="matrix(0.247395,0,0,1.04831,-1.73176,-2.95169)">
                        <path d="M41.524,15.982L31.786,42.483L43.805,41.794L50.848,23.154C51.697,20.782 52.991,19.434 54.424,18.901C57.114,20.243 47.059,-0.371 41.524,15.982Z" style="fill:url(#_Radial4);fill-rule:nonzero;"/>
                        <path d="M47.621,19.927C49.533,18.174 52.273,17.828 54.424,18.901M54.424,18.901C52.991,19.434 51.697,20.782 50.848,23.154L39.11,54.216L26.917,55.731L41.524,15.982" style="fill:none;fill-rule:nonzero;stroke:black;stroke-width:1.89px;"/>
                    </g>
                    <g id="R-stem" transform="matrix(0.247395,0,0,1.04831,13.0597,-10.792)">
                        <path d="M41.524,15.982L31.78,42.497L43.256,43.246L50.848,23.154C51.697,20.782 52.991,19.434 54.424,18.901C57.114,20.243 47.059,-0.371 41.524,15.982Z" style="fill:url(#_Radial5);fill-rule:nonzero;"/>
                        <path d="M47.621,19.927C49.533,18.174 52.273,17.828 54.424,18.901M54.424,18.901C52.991,19.434 51.697,20.782 50.848,23.154L39.11,54.216L26.917,55.731L41.524,15.982" style="fill:none;fill-rule:nonzero;stroke:black;stroke-width:1.89px;"/>
                    </g>
                    <g transform="matrix(0.247395,0,0,1.04831,-5.04669e-14,-8.19324)">
                        <path d="M53.359,183.897L5.303,42.959L141.221,26.821L202.545,148.393L53.359,183.897Z" style="fill:white;fill-rule:nonzero;"/>
                        <path d="M162.223,68.456L21.643,90.879M174.919,93.625L31.596,120.069M188.363,120.279L42.122,150.942M150.223,44.666L12.311,63.511" style="fill:none;fill-rule:nonzero;stroke:rgb(112,240,155);stroke-opacity:0.5;stroke-width:2px;"/>
                        <path d="M50.17,58.446L94.853,174.022M86.006,53.511L133.456,164.835M119.855,48.848L169.557,156.244" style="fill:none;fill-rule:nonzero;stroke:rgb(183,247,205);stroke-width:2px;"/>
                    </g>
                    <g id="checkmark" transform="matrix(0.247395,0,0,1.04831,-5.04669e-14,-8.19324)">
                        <path d="M94.135,156.638L50.17,113.611L72.607,109.197L96.868,133.637L129.77,50.406L146.431,59.796L111.26,152.842L94.135,156.638Z" style="fill:rgb(112,240,155);fill-rule:nonzero;"/>
                        <path d="M146.432,59.796L112.531,149.469L96.752,133.69L129.77,50.406L146.432,59.796Z" style="fill:url(#_Linear6);fill-rule:nonzero;"/>
                    </g>
                    <g id="outline" transform="matrix(0.247395,0,0,1.04831,-5.04669e-14,-8.19324)">
                        <path d="M141.221,26.821L5.303,42.959L1,64.117L43.317,209L194.297,164.89L202.545,148.393L141.221,26.821Z" style="fill:none;fill-rule:nonzero;stroke:black;stroke-width:1.89px;"/>
                    </g>
                    <g id="L-top" transform="matrix(0.247395,0,0,1.04831,-1.48437,-8.19324)">
                        <path d="M40.524,20.982C40.524,20.982 51.991,24.434 53.424,23.901C56.114,25.243 57.88,28.804 55.945,34.609C54.869,37.837 53.287,40.296 51.566,44.313C49.414,49.334 59.455,54.354 61.966,48.616L65.986,39.272C75.31,12.375 46.059,4.629 40.524,20.982Z" style="fill:url(#_Radial7);fill-rule:nonzero;"/>
                        <path d="M46.621,24.927C48.533,23.174 51.273,22.828 53.424,23.901M40.524,20.982C46.059,4.629 75.31,12.375 65.986,39.272L61.966,48.616C59.455,54.354 49.414,49.334 51.566,44.313C53.287,40.296 54.869,37.837 55.945,34.609C57.88,28.804 56.114,25.243 53.424,23.901" style="fill:none;fill-rule:nonzero;stroke:black;stroke-width:1.89px;"/>
                    </g>
                    <g id="R-top" transform="matrix(0.247395,0,0,1.04831,13.3071,-16.0336)">
                        <path d="M40.524,20.982C40.524,20.982 51.991,24.434 53.424,23.901C56.114,25.243 57.88,28.804 55.945,34.609C54.869,37.837 53.287,40.296 51.566,44.313C49.414,49.334 59.455,54.354 61.966,48.616L65.986,39.272C75.31,12.375 46.059,4.629 40.524,20.982Z" style="fill:url(#_Radial8);fill-rule:nonzero;"/>
                        <path d="M46.621,24.927C48.533,23.174 51.273,22.828 53.424,23.901M40.524,20.982C46.059,4.629 75.31,12.375 65.986,39.272L61.966,48.616C59.455,54.354 49.414,49.334 51.566,44.313C53.287,40.296 54.869,37.837 55.945,34.609C57.88,28.804 56.114,25.243 53.424,23.901" style="fill:none;fill-rule:nonzero;stroke:black;stroke-width:1.89px;"/>
                    </g>
                </g>
                <g transform="matrix(2.3875,0,0,12.6403,-1053.56,-4217.19)">
                    <g transform="matrix(12,0,0,12,459.71,346.335)">
                        <path d="M0.501,-0.19C0.501,-0.127 0.478,-0.078 0.433,-0.043C0.387,-0.008 0.325,0.01 0.247,0.01C0.162,0.01 0.097,-0.001 0.052,-0.023L0.052,-0.103C0.081,-0.091 0.113,-0.081 0.147,-0.074C0.182,-0.067 0.216,-0.063 0.25,-0.063C0.305,-0.063 0.347,-0.073 0.375,-0.094C0.403,-0.115 0.417,-0.145 0.417,-0.182C0.417,-0.207 0.412,-0.227 0.402,-0.243C0.392,-0.259 0.376,-0.273 0.352,-0.287C0.329,-0.3 0.294,-0.315 0.246,-0.332C0.18,-0.356 0.132,-0.384 0.104,-0.417C0.075,-0.449 0.061,-0.492 0.061,-0.544C0.061,-0.599 0.082,-0.643 0.123,-0.675C0.164,-0.708 0.219,-0.724 0.287,-0.724C0.358,-0.724 0.423,-0.711 0.483,-0.685L0.457,-0.613C0.398,-0.638 0.341,-0.65 0.285,-0.65C0.241,-0.65 0.207,-0.64 0.182,-0.622C0.157,-0.603 0.145,-0.576 0.145,-0.543C0.145,-0.518 0.15,-0.498 0.159,-0.482C0.168,-0.466 0.183,-0.452 0.205,-0.439C0.226,-0.426 0.26,-0.411 0.304,-0.395C0.379,-0.368 0.431,-0.34 0.459,-0.309C0.487,-0.278 0.501,-0.239 0.501,-0.19Z" style="fill:rgb(64,64,64);fill-rule:nonzero;"/>
                    </g>
                    <g transform="matrix(12,0,0,12,466.296,346.335)">
                        <path d="M0.3,0.01C0.222,0.01 0.162,-0.014 0.12,-0.062C0.077,-0.109 0.056,-0.177 0.056,-0.264C0.056,-0.354 0.078,-0.423 0.121,-0.472C0.164,-0.521 0.225,-0.545 0.305,-0.545C0.331,-0.545 0.357,-0.542 0.382,-0.537C0.408,-0.531 0.428,-0.525 0.443,-0.517L0.418,-0.448C0.4,-0.455 0.381,-0.461 0.359,-0.466C0.338,-0.471 0.319,-0.473 0.303,-0.473C0.194,-0.473 0.14,-0.404 0.14,-0.265C0.14,-0.199 0.153,-0.149 0.18,-0.114C0.206,-0.079 0.246,-0.061 0.298,-0.061C0.342,-0.061 0.388,-0.071 0.435,-0.09L0.435,-0.018C0.399,0 0.354,0.01 0.3,0.01Z" style="fill:rgb(64,64,64);fill-rule:nonzero;"/>
                    </g>
                    <g transform="matrix(12,0,0,12,472.009,346.335)">
                        <path d="M0.452,-0L0.452,-0.346C0.452,-0.39 0.442,-0.422 0.422,-0.444C0.403,-0.465 0.371,-0.476 0.329,-0.476C0.273,-0.476 0.232,-0.461 0.206,-0.43C0.18,-0.4 0.167,-0.349 0.167,-0.28L0.167,-0L0.086,-0L0.086,-0.76L0.167,-0.76L0.167,-0.53C0.167,-0.502 0.166,-0.479 0.163,-0.461L0.168,-0.461C0.184,-0.487 0.207,-0.507 0.236,-0.522C0.266,-0.537 0.299,-0.544 0.337,-0.544C0.402,-0.544 0.451,-0.528 0.484,-0.497C0.517,-0.466 0.533,-0.417 0.533,-0.349L0.533,-0L0.452,-0Z" style="fill:rgb(64,64,64);fill-rule:nonzero;"/>
                    </g>
                    <g transform="matrix(12,0,0,12,479.375,346.335)">
                        <path d="M0.312,0.01C0.233,0.01 0.17,-0.014 0.125,-0.063C0.079,-0.111 0.056,-0.178 0.056,-0.263C0.056,-0.349 0.077,-0.418 0.12,-0.469C0.162,-0.52 0.219,-0.545 0.291,-0.545C0.358,-0.545 0.411,-0.523 0.45,-0.479C0.489,-0.435 0.509,-0.376 0.509,-0.304L0.509,-0.253L0.14,-0.253C0.142,-0.19 0.158,-0.142 0.188,-0.11C0.218,-0.077 0.26,-0.061 0.315,-0.061C0.373,-0.061 0.43,-0.073 0.486,-0.097L0.486,-0.025C0.457,-0.013 0.43,-0.004 0.405,0.002C0.379,0.007 0.348,0.01 0.312,0.01ZM0.29,-0.477C0.247,-0.477 0.213,-0.463 0.187,-0.435C0.162,-0.407 0.147,-0.368 0.142,-0.319L0.422,-0.319C0.422,-0.37 0.41,-0.409 0.388,-0.436C0.365,-0.463 0.332,-0.477 0.29,-0.477Z" style="fill:rgb(64,64,64);fill-rule:nonzero;"/>
                    </g>
                    <g transform="matrix(12,0,0,12,486.107,346.335)">
                        <path d="M0.45,-0.072L0.446,-0.072C0.408,-0.017 0.352,0.01 0.278,0.01C0.208,0.01 0.153,-0.014 0.115,-0.062C0.076,-0.11 0.056,-0.178 0.056,-0.266C0.056,-0.354 0.076,-0.423 0.115,-0.472C0.154,-0.521 0.208,-0.545 0.278,-0.545C0.35,-0.545 0.406,-0.519 0.445,-0.466L0.451,-0.466L0.448,-0.504L0.446,-0.542L0.446,-0.76L0.527,-0.76L0.527,-0L0.461,-0L0.45,-0.072ZM0.288,-0.058C0.343,-0.058 0.384,-0.073 0.408,-0.103C0.433,-0.133 0.446,-0.182 0.446,-0.249L0.446,-0.266C0.446,-0.342 0.433,-0.396 0.408,-0.428C0.383,-0.461 0.342,-0.477 0.287,-0.477C0.24,-0.477 0.203,-0.459 0.178,-0.422C0.153,-0.385 0.14,-0.333 0.14,-0.265C0.14,-0.197 0.153,-0.145 0.178,-0.11C0.203,-0.076 0.24,-0.058 0.288,-0.058Z" style="fill:rgb(64,64,64);fill-rule:nonzero;"/>
                    </g>
                    <g transform="matrix(12,0,0,12,493.46,346.335)">
                        <path d="M0.162,-0.535L0.162,-0.188C0.162,-0.144 0.172,-0.112 0.192,-0.09C0.212,-0.069 0.243,-0.058 0.285,-0.058C0.341,-0.058 0.382,-0.073 0.408,-0.104C0.434,-0.135 0.447,-0.185 0.447,-0.254L0.447,-0.535L0.528,-0.535L0.528,-0L0.461,-0L0.449,-0.072L0.445,-0.072C0.428,-0.045 0.405,-0.025 0.376,-0.011C0.346,0.003 0.313,0.01 0.275,0.01C0.21,0.01 0.161,-0.006 0.129,-0.037C0.096,-0.068 0.08,-0.117 0.08,-0.185L0.08,-0.535L0.162,-0.535Z" style="fill:rgb(64,64,64);fill-rule:nonzero;"/>
                    </g>
                    <g transform="matrix(12,0,0,12,500.826,346.335)">
                        <rect x="0.086" y="-0.76" width="0.081" height="0.76" style="fill:rgb(64,64,64);fill-rule:nonzero;"/>
                    </g>
                    <g transform="matrix(12,0,0,12,503.861,346.335)">
                        <path d="M0.312,0.01C0.233,0.01 0.17,-0.014 0.125,-0.063C0.079,-0.111 0.056,-0.178 0.056,-0.263C0.056,-0.349 0.077,-0.418 0.12,-0.469C0.162,-0.52 0.219,-0.545 0.291,-0.545C0.358,-0.545 0.411,-0.523 0.45,-0.479C0.489,-0.435 0.509,-0.376 0.509,-0.304L0.509,-0.253L0.14,-0.253C0.142,-0.19 0.158,-0.142 0.188,-0.11C0.218,-0.077 0.26,-0.061 0.315,-0.061C0.373,-0.061 0.43,-0.073 0.486,-0.097L0.486,-0.025C0.457,-0.013 0.43,-0.004 0.405,0.002C0.379,0.007 0.348,0.01 0.312,0.01ZM0.29,-0.477C0.247,-0.477 0.213,-0.463 0.187,-0.435C0.162,-0.407 0.147,-0.368 0.142,-0.319L0.422,-0.319C0.422,-0.37 0.41,-0.409 0.388,-0.436C0.365,-0.463 0.332,-0.477 0.29,-0.477Z" style="fill:rgb(64,64,64);fill-rule:nonzero;"/>
                    </g>
                    <g transform="matrix(12,0,0,12,510.593,346.335)">
                        <path d="M0.637,-0.714L0.637,-0.252C0.637,-0.171 0.613,-0.107 0.563,-0.06C0.514,-0.014 0.447,0.01 0.361,0.01C0.275,0.01 0.208,-0.014 0.161,-0.061C0.114,-0.107 0.091,-0.172 0.091,-0.254L0.091,-0.714L0.174,-0.714L0.174,-0.248C0.174,-0.188 0.19,-0.143 0.223,-0.111C0.255,-0.079 0.303,-0.063 0.366,-0.063C0.426,-0.063 0.473,-0.079 0.505,-0.111C0.538,-0.143 0.554,-0.189 0.554,-0.249L0.554,-0.714L0.637,-0.714Z" style="fill:rgb(0,245,146);fill-rule:nonzero;"/>
                    </g>
                    <g transform="matrix(12,0,0,12,519.33,346.335)">
                        <path d="M0.573,-0L0.479,-0L0.287,-0.314L0.092,-0L0.004,-0L0.241,-0.373L0.02,-0.714L0.112,-0.714L0.289,-0.431L0.468,-0.714L0.556,-0.714L0.335,-0.376L0.573,-0Z" style="fill:rgb(0,245,146);fill-rule:nonzero;"/>
                    </g>
                </g>
            </g>
        </g>
    </g>
    <defs>
        <linearGradient id="_Linear2" x1="0" y1="0" x2="1" y2="0" gradientUnits="userSpaceOnUse" gradientTransform="matrix(-171.642,-3.805,3.805,-171.642,195.049,157.846)"><stop offset="0" style="stop-color:rgb(244,251,248);stop-opacity:1"/><stop offset="1" style="stop-color:rgb(229,238,232);stop-opacity:1"/></linearGradient>
        <linearGradient id="_Linear3" x1="0" y1="0" x2="1" y2="0" gradientUnits="userSpaceOnUse" gradientTransform="matrix(52.4228,159.382,-159.382,52.4228,0.999999,49.6179)"><stop offset="0" style="stop-color:rgb(232,240,235);stop-opacity:1"/><stop offset="1" style="stop-color:rgb(244,251,248);stop-opacity:1"/></linearGradient>
        <radialGradient id="_Radial4" cx="0" cy="0" r="1" gradientUnits="userSpaceOnUse" gradientTransform="matrix(-20.7999,25.1035,-20.6085,-17.0755,64.8345,12.8344)"><stop offset="0" style="stop-color:rgb(242,242,242);stop-opacity:1"/><stop offset="0.78" style="stop-color:rgb(196,196,196);stop-opacity:1"/><stop offset="1" style="stop-color:rgb(196,196,196);stop-opacity:1"/></radialGradient>
        <radialGradient id="_Radial5" cx="0" cy="0" r="1" gradientUnits="userSpaceOnUse" gradientTransform="matrix(-20.7999,25.1035,-20.6085,-17.0755,64.8345,12.8344)"><stop offset="0" style="stop-color:rgb(242,242,242);stop-opacity:1"/><stop offset="0.78" style="stop-color:rgb(196,196,196);stop-opacity:1"/><stop offset="1" style="stop-color:rgb(196,196,196);stop-opacity:1"/></radialGradient>
        <linearGradient id="_Linear6" x1="0" y1="0" x2="1" y2="0" gradientUnits="userSpaceOnUse" gradientTransform="matrix(-19.366,17.573,-17.573,-19.366,126.876,134.765)"><stop offset="0" style="stop-color:rgb(112,240,137);stop-opacity:1"/><stop offset="1" style="stop-color:rgb(72,209,118);stop-opacity:1"/></linearGradient>
        <radialGradient id="_Radial7" cx="0" cy="0" r="1" gradientUnits="userSpaceOnUse" gradientTransform="matrix(-20.7999,25.1035,-20.6085,-17.0755,64.8345,12.8344)"><stop offset="0" style="stop-color:rgb(242,242,242);stop-opacity:1"/><stop offset="0.78" style="stop-color:rgb(196,196,196);stop-opacity:1"/><stop offset="1" style="stop-color:rgb(196,196,196);stop-opacity:1"/></radialGradient>
        <radialGradient id="_Radial8" cx="0" cy="0" r="1" gradientUnits="userSpaceOnUse" gradientTransform="matrix(-20.7999,25.1035,-20.6085,-17.0755,64.8345,12.8344)"><stop offset="0" style="stop-color:rgb(242,242,242);stop-opacity:1"/><stop offset="0.78" style="stop-color:rgb(196,196,196);stop-opacity:1"/><stop offset="1" style="stop-color:rgb(196,196,196);stop-opacity:1"/></radialGradient>
    </defs>
</svg>
