<?xml version="1.0" encoding="UTF-8" standalone="no"?>
<!DOCTYPE svg PUBLIC "-//W3C//DTD SVG 1.1//EN" "http://www.w3.org/Graphics/SVG/1.1/DTD/svg11.dtd">
<svg width="100%" height="100%" viewBox="0 0 3376 741" version="1.1" xmlns="http://www.w3.org/2000/svg" xmlns:xlink="http://www.w3.org/1999/xlink" xml:space="preserve" xmlns:serif="http://www.serif.com/" style="fill-rule:evenodd;clip-rule:evenodd;stroke-linejoin:round;stroke-miterlimit:2;">
    <g transform="matrix(4.16667,0,0,4.16667,0,-4422.57)">
        <g id="Artboard1" transform="matrix(3.97112,0,0,0.819083,0,1064.69)">
            <rect x="0" y="-4" width="204" height="217" style="fill:none;"/>
            <g>
                <g id="frame" transform="matrix(0.251818,0,0,1.22088,0,-1299.86)">
                    <rect x="0" y="1061.42" width="810.109" height="177.741" style="fill:none;"/>
                </g>
                <g transform="matrix(2.31382,0,0,11.218,-1017.52,-3730.9)">
                    <g transform="matrix(12,0,0,12,459.71,346.335)">
                        <path d="M0.501,-0.19C0.501,-0.127 0.478,-0.078 0.433,-0.043C0.387,-0.008 0.325,0.01 0.247,0.01C0.162,0.01 0.097,-0.001 0.052,-0.023L0.052,-0.103C0.081,-0.091 0.113,-0.081 0.147,-0.074C0.182,-0.067 0.216,-0.063 0.25,-0.063C0.305,-0.063 0.347,-0.073 0.375,-0.094C0.403,-0.115 0.417,-0.145 0.417,-0.182C0.417,-0.207 0.412,-0.227 0.402,-0.243C0.392,-0.259 0.376,-0.273 0.352,-0.287C0.329,-0.3 0.294,-0.315 0.246,-0.332C0.18,-0.356 0.132,-0.384 0.104,-0.417C0.075,-0.449 0.061,-0.492 0.061,-0.544C0.061,-0.599 0.082,-0.643 0.123,-0.675C0.164,-0.708 0.219,-0.724 0.287,-0.724C0.358,-0.724 0.423,-0.711 0.483,-0.685L0.457,-0.613C0.398,-0.638 0.341,-0.65 0.285,-0.65C0.241,-0.65 0.207,-0.64 0.182,-0.622C0.157,-0.603 0.145,-0.576 0.145,-0.543C0.145,-0.518 0.15,-0.498 0.159,-0.482C0.168,-0.466 0.183,-0.452 0.205,-0.439C0.226,-0.426 0.26,-0.411 0.304,-0.395C0.379,-0.368 0.431,-0.34 0.459,-0.309C0.487,-0.278 0.501,-0.239 0.501,-0.19Z" style="fill:rgb(64,64,64);fill-rule:nonzero;"/>
                    </g>
                    <g transform="matrix(12,0,0,12,466.296,346.335)">
                        <path d="M0.3,0.01C0.222,0.01 0.162,-0.014 0.12,-0.062C0.077,-0.109 0.056,-0.177 0.056,-0.264C0.056,-0.354 0.078,-0.423 0.121,-0.472C0.164,-0.521 0.225,-0.545 0.305,-0.545C0.331,-0.545 0.357,-0.542 0.382,-0.537C0.408,-0.531 0.428,-0.525 0.443,-0.517L0.418,-0.448C0.4,-0.455 0.381,-0.461 0.359,-0.466C0.338,-0.471 0.319,-0.473 0.303,-0.473C0.194,-0.473 0.14,-0.404 0.14,-0.265C0.14,-0.199 0.153,-0.149 0.18,-0.114C0.206,-0.079 0.246,-0.061 0.298,-0.061C0.342,-0.061 0.388,-0.071 0.435,-0.09L0.435,-0.018C0.399,0 0.354,0.01 0.3,0.01Z" style="fill:rgb(64,64,64);fill-rule:nonzero;"/>
                    </g>
                    <g transform="matrix(12,0,0,12,472.009,346.335)">
                        <path d="M0.452,-0L0.452,-0.346C0.452,-0.39 0.442,-0.422 0.422,-0.444C0.403,-0.465 0.371,-0.476 0.329,-0.476C0.273,-0.476 0.232,-0.461 0.206,-0.43C0.18,-0.4 0.167,-0.349 0.167,-0.28L0.167,-0L0.086,-0L0.086,-0.76L0.167,-0.76L0.167,-0.53C0.167,-0.502 0.166,-0.479 0.163,-0.461L0.168,-0.461C0.184,-0.487 0.207,-0.507 0.236,-0.522C0.266,-0.537 0.299,-0.544 0.337,-0.544C0.402,-0.544 0.451,-0.528 0.484,-0.497C0.517,-0.466 0.533,-0.417 0.533,-0.349L0.533,-0L0.452,-0Z" style="fill:rgb(64,64,64);fill-rule:nonzero;"/>
                    </g>
                    <g transform="matrix(12,0,0,12,479.375,346.335)">
                        <path d="M0.312,0.01C0.233,0.01 0.17,-0.014 0.125,-0.063C0.079,-0.111 0.056,-0.178 0.056,-0.263C0.056,-0.349 0.077,-0.418 0.12,-0.469C0.162,-0.52 0.219,-0.545 0.291,-0.545C0.358,-0.545 0.411,-0.523 0.45,-0.479C0.489,-0.435 0.509,-0.376 0.509,-0.304L0.509,-0.253L0.14,-0.253C0.142,-0.19 0.158,-0.142 0.188,-0.11C0.218,-0.077 0.26,-0.061 0.315,-0.061C0.373,-0.061 0.43,-0.073 0.486,-0.097L0.486,-0.025C0.457,-0.013 0.43,-0.004 0.405,0.002C0.379,0.007 0.348,0.01 0.312,0.01ZM0.29,-0.477C0.247,-0.477 0.213,-0.463 0.187,-0.435C0.162,-0.407 0.147,-0.368 0.142,-0.319L0.422,-0.319C0.422,-0.37 0.41,-0.409 0.388,-0.436C0.365,-0.463 0.332,-0.477 0.29,-0.477Z" style="fill:rgb(64,64,64);fill-rule:nonzero;"/>
                    </g>
                    <g transform="matrix(12,0,0,12,486.107,346.335)">
                        <path d="M0.45,-0.072L0.446,-0.072C0.408,-0.017 0.352,0.01 0.278,0.01C0.208,0.01 0.153,-0.014 0.115,-0.062C0.076,-0.11 0.056,-0.178 0.056,-0.266C0.056,-0.354 0.076,-0.423 0.115,-0.472C0.154,-0.521 0.208,-0.545 0.278,-0.545C0.35,-0.545 0.406,-0.519 0.445,-0.466L0.451,-0.466L0.448,-0.504L0.446,-0.542L0.446,-0.76L0.527,-0.76L0.527,-0L0.461,-0L0.45,-0.072ZM0.288,-0.058C0.343,-0.058 0.384,-0.073 0.408,-0.103C0.433,-0.133 0.446,-0.182 0.446,-0.249L0.446,-0.266C0.446,-0.342 0.433,-0.396 0.408,-0.428C0.383,-0.461 0.342,-0.477 0.287,-0.477C0.24,-0.477 0.203,-0.459 0.178,-0.422C0.153,-0.385 0.14,-0.333 0.14,-0.265C0.14,-0.197 0.153,-0.145 0.178,-0.11C0.203,-0.076 0.24,-0.058 0.288,-0.058Z" style="fill:rgb(64,64,64);fill-rule:nonzero;"/>
                    </g>
                    <g transform="matrix(12,0,0,12,493.46,346.335)">
                        <path d="M0.162,-0.535L0.162,-0.188C0.162,-0.144 0.172,-0.112 0.192,-0.09C0.212,-0.069 0.243,-0.058 0.285,-0.058C0.341,-0.058 0.382,-0.073 0.408,-0.104C0.434,-0.135 0.447,-0.185 0.447,-0.254L0.447,-0.535L0.528,-0.535L0.528,-0L0.461,-0L0.449,-0.072L0.445,-0.072C0.428,-0.045 0.405,-0.025 0.376,-0.011C0.346,0.003 0.313,0.01 0.275,0.01C0.21,0.01 0.161,-0.006 0.129,-0.037C0.096,-0.068 0.08,-0.117 0.08,-0.185L0.08,-0.535L0.162,-0.535Z" style="fill:rgb(64,64,64);fill-rule:nonzero;"/>
                    </g>
                    <g transform="matrix(12,0,0,12,500.826,346.335)">
                        <rect x="0.086" y="-0.76" width="0.081" height="0.76" style="fill:rgb(64,64,64);fill-rule:nonzero;"/>
                    </g>
                    <g transform="matrix(12,0,0,12,503.861,346.335)">
                        <path d="M0.312,0.01C0.233,0.01 0.17,-0.014 0.125,-0.063C0.079,-0.111 0.056,-0.178 0.056,-0.263C0.056,-0.349 0.077,-0.418 0.12,-0.469C0.162,-0.52 0.219,-0.545 0.291,-0.545C0.358,-0.545 0.411,-0.523 0.45,-0.479C0.489,-0.435 0.509,-0.376 0.509,-0.304L0.509,-0.253L0.14,-0.253C0.142,-0.19 0.158,-0.142 0.188,-0.11C0.218,-0.077 0.26,-0.061 0.315,-0.061C0.373,-0.061 0.43,-0.073 0.486,-0.097L0.486,-0.025C0.457,-0.013 0.43,-0.004 0.405,0.002C0.379,0.007 0.348,0.01 0.312,0.01ZM0.29,-0.477C0.247,-0.477 0.213,-0.463 0.187,-0.435C0.162,-0.407 0.147,-0.368 0.142,-0.319L0.422,-0.319C0.422,-0.37 0.41,-0.409 0.388,-0.436C0.365,-0.463 0.332,-0.477 0.29,-0.477Z" style="fill:rgb(64,64,64);fill-rule:nonzero;"/>
                    </g>
                </g>
                <g>
                    <g transform="matrix(27.7659,0,0,134.616,163.902,154.28)">
                        <path d="M0.637,-0.714L0.637,-0.252C0.637,-0.171 0.613,-0.107 0.563,-0.06C0.514,-0.014 0.447,0.01 0.361,0.01C0.275,0.01 0.208,-0.014 0.161,-0.061C0.114,-0.107 0.091,-0.172 0.091,-0.254L0.091,-0.714L0.174,-0.714L0.174,-0.248C0.174,-0.188 0.19,-0.143 0.223,-0.111C0.255,-0.079 0.303,-0.063 0.366,-0.063C0.426,-0.063 0.473,-0.079 0.505,-0.111C0.538,-0.143 0.554,-0.189 0.554,-0.249L0.554,-0.714L0.637,-0.714Z" style="fill:url(#_Radial1);fill-rule:nonzero;"/>
                    </g>
                    <g transform="matrix(27.7659,0,0,134.616,163.902,154.28)">
                        <path d="M0.637,-0.714L0.637,-0.252C0.637,-0.171 0.613,-0.107 0.563,-0.06C0.514,-0.014 0.447,0.01 0.361,0.01C0.312,0.01 0.27,0.002 0.234,-0.012C0.401,0.031 0.554,-0.073 0.554,-0.249L0.554,-0.714L0.637,-0.714Z" style="fill:rgb(146,236,163);fill-rule:nonzero;"/>
                    </g>
                </g>
                <g id="X">
                    <g transform="matrix(27.7659,0,0,134.616,184.116,154.28)">
                        <path d="M0.556,-0.714L0.092,-0L0.004,-0L0.468,-0.714L0.556,-0.714Z" style="fill:url(#_Linear2);fill-rule:nonzero;"/>
                    </g>
                    <g transform="matrix(27.7659,0,0,134.616,184.116,154.28)">
                        <path d="M0.573,-0L0.479,-0L0.02,-0.714L0.112,-0.714L0.573,-0Z" style="fill:rgb(146,236,163);fill-rule:nonzero;"/>
                    </g>
                </g>
                <g transform="matrix(0.75346,0,0,0.86208,3.97824,14.1746)">
                    <g id="edge" transform="matrix(0.247395,0,0,1.04831,-5.04669e-14,-8.19324)">
                        <path d="M5.303,42.959L53.359,183.897L202.545,148.393L194.297,164.89L43.317,209L1,64.117L5.303,42.959Z" style="fill:url(#_Linear3);fill-rule:nonzero;"/>
                    </g>
                    <g id="left-edge" serif:id="left edge" transform="matrix(0.247395,0,0,1.04831,-5.04669e-14,-8.19324)">
                        <path d="M53.359,183.897L43.317,209L1,64.476L5.303,43.317L53.359,183.897Z" style="fill:url(#_Linear4);fill-rule:nonzero;"/>
                    </g>
                    <g id="L-stem" transform="matrix(0.247395,0,0,1.04831,-1.73176,-2.95169)">
                        <path d="M41.524,15.982L31.786,42.483L43.805,41.794L50.848,23.154C51.697,20.782 52.991,19.434 54.424,18.901C57.114,20.243 47.059,-0.371 41.524,15.982Z" style="fill:url(#_Radial5);fill-rule:nonzero;"/>
                        <path d="M54.424,18.901L54.846,18.055C52.361,16.815 49.191,17.204 46.982,19.23L48.26,20.624C49.359,19.616 50.783,19.154 52.153,19.248C51.291,20.068 50.53,21.239 49.961,22.827L38.427,53.348C38.427,53.348 28.34,54.601 28.34,54.601L42.412,16.308L40.636,15.656L25.495,56.861L39.793,55.084L51.736,23.481C52.466,21.44 53.526,20.244 54.754,19.787L54.424,18.901Z" style="fill:rgb(38,38,38);"/>
                    </g>
                    <g id="R-stem" transform="matrix(0.247395,0,0,1.04831,13.0597,-10.792)">
                        <path d="M41.524,15.982L31.78,42.497L43.256,43.246L50.848,23.154C51.697,20.782 52.991,19.434 54.424,18.901C57.114,20.243 47.059,-0.371 41.524,15.982Z" style="fill:url(#_Radial6);fill-rule:nonzero;"/>
                        <path d="M54.424,18.901L54.846,18.055C52.361,16.815 49.191,17.204 46.982,19.23L48.26,20.624C49.359,19.616 50.783,19.154 52.153,19.248C51.291,20.068 50.53,21.239 49.961,22.827L38.427,53.348C38.427,53.348 28.34,54.601 28.34,54.601L42.412,16.308L40.636,15.656L25.495,56.861L39.793,55.084L51.736,23.481C52.466,21.44 53.526,20.244 54.754,19.787L54.424,18.901Z" style="fill:rgb(38,38,38);"/>
                    </g>
                    <g transform="matrix(0.247395,0,0,1.04831,-5.04669e-14,-8.19324)">
                        <path d="M53.359,183.897L5.303,42.959L141.221,26.821L202.545,148.393L53.359,183.897Z" style="fill:white;fill-rule:nonzero;"/>
                        <path d="M188.158,119.3L41.917,149.963L41.797,149.99L42.447,151.896L188.569,121.257L188.158,119.3ZM174.737,92.642L31.414,119.086L31.27,119.113L31.922,121.026L175.1,94.608L174.737,92.642ZM162.066,67.469L21.485,89.891L21.315,89.919L21.97,91.839L162.381,69.444L162.066,67.469ZM150.087,43.675L12.176,62.52L11.983,62.549L12.64,64.476L150.358,45.657L150.087,43.675Z" style="fill:rgb(112,240,155);fill-opacity:0.5;"/>
                        <path d="M49.237,58.807L93.871,174.256L95.836,173.788L95.785,173.661L51.103,58.086L49.237,58.807ZM85.086,53.903L132.469,165.07L134.445,164.6L134.376,164.443L86.925,53.119L85.086,53.903ZM118.947,49.268L168.564,156.48L170.552,156.007L170.464,155.824L120.763,48.428L118.947,49.268Z" style="fill:rgb(183,247,205);"/>
                    </g>
                    <g id="checkmark" transform="matrix(0.247395,0,0,1.04831,-5.04669e-14,-8.19324)">
                        <path d="M94.135,156.638L50.17,113.611L72.607,109.197L96.868,133.637L129.77,50.406L146.431,59.796L111.26,152.842L94.135,156.638Z" style="fill:rgb(112,240,155);fill-rule:nonzero;"/>
                        <path d="M146.432,59.796L112.531,149.469L96.752,133.69L129.77,50.406L146.432,59.796Z" style="fill:url(#_Linear7);fill-rule:nonzero;"/>
                    </g>
                    <g transform="matrix(0.247395,0,0,1.04831,-4.9738e-14,-8.19324)">
                        <path d="M203.603,148.391L141.767,25.804L4.513,42.1L0.027,64.158L42.675,210.173L194.958,165.682L203.603,148.391ZM140.675,27.838L201.487,148.395C201.487,148.395 193.636,164.098 193.636,164.098C193.636,164.098 43.96,207.827 43.96,207.827C43.96,207.827 1.973,64.077 1.973,64.077C1.973,64.077 6.094,43.817 6.094,43.817L140.675,27.838Z" style="fill:rgb(38,38,38);"/>
                    </g>
                    <g id="L-top" transform="matrix(0.247395,0,0,1.04831,-1.48437,-8.19324)">
                        <path d="M40.524,20.982C40.524,20.982 51.991,24.434 53.424,23.901C56.114,25.243 57.88,28.804 55.945,34.609C54.869,37.837 53.287,40.296 51.566,44.313C49.414,49.334 59.455,54.354 61.966,48.616L65.986,39.272C75.31,12.375 46.059,4.629 40.524,20.982Z" style="fill:url(#_Radial8);fill-rule:nonzero;"/>
                        <path d="M53.846,23.055L53.846,23.055C51.361,21.815 48.191,22.204 45.982,24.23L47.26,25.624C48.874,24.144 51.186,23.841 53.002,24.747L53.424,23.901L53.002,24.747C55.393,25.94 56.768,29.15 55.048,34.31L55.048,34.31C53.98,37.514 52.405,39.953 50.696,43.94C49.421,46.915 51.597,49.978 54.625,51.359C57.656,52.742 61.343,52.399 62.832,48.995L66.868,39.614L66.88,39.581C69.79,31.185 69.038,24.584 66.473,19.914C60.327,8.721 43.769,8.444 39.628,20.679L41.42,21.285C45.028,10.625 59.46,11.071 64.815,20.824C67.175,25.122 67.774,31.196 65.108,38.916C65.104,38.93 61.098,48.239 61.098,48.239C60.076,50.573 57.489,50.587 55.41,49.639C53.326,48.688 51.557,46.733 52.435,44.685C54.169,40.639 55.758,38.16 56.842,34.908C58.993,28.457 56.835,24.546 53.846,23.055Z" style="fill:rgb(38,38,38);"/>
                    </g>
                    <g id="R-top" transform="matrix(0.247395,0,0,1.04831,13.3071,-16.0336)">
                        <path d="M40.524,20.982C40.524,20.982 51.991,24.434 53.424,23.901C56.114,25.243 57.88,28.804 55.945,34.609C54.869,37.837 53.287,40.296 51.566,44.313C49.414,49.334 59.455,54.354 61.966,48.616L65.986,39.272C75.31,12.375 46.059,4.629 40.524,20.982Z" style="fill:url(#_Radial9);fill-rule:nonzero;"/>
                        <path d="M53.846,23.055L53.846,23.055C51.361,21.815 48.191,22.204 45.982,24.23L47.26,25.624C48.874,24.144 51.186,23.841 53.002,24.747L53.424,23.901L53.002,24.747C55.393,25.94 56.768,29.15 55.048,34.31L55.048,34.31C53.98,37.514 52.405,39.953 50.696,43.94C49.421,46.915 51.597,49.978 54.625,51.359C57.656,52.742 61.343,52.399 62.832,48.995L66.868,39.614L66.88,39.581C69.79,31.185 69.038,24.584 66.473,19.914C60.327,8.721 43.769,8.444 39.628,20.679L41.42,21.285C45.028,10.625 59.46,11.071 64.815,20.824C67.175,25.122 67.774,31.196 65.108,38.916C65.104,38.93 61.098,48.239 61.098,48.239C60.076,50.573 57.489,50.587 55.41,49.639C53.326,48.688 51.557,46.733 52.435,44.685C54.169,40.639 55.758,38.16 56.842,34.908C58.993,28.457 56.835,24.546 53.846,23.055Z" style="fill:rgb(38,38,38);"/>
                    </g>
                </g>
            </g>
        </g>
    </g>
    <defs>
        <radialGradient id="_Radial1" cx="0" cy="0" r="1" gradientUnits="userSpaceOnUse" gradientTransform="matrix(0.519573,0.580437,-0.580437,0.519573,0.111949,-0.759766)"><stop offset="0" style="stop-color:rgb(146,236,163);stop-opacity:1"/><stop offset="0.52" style="stop-color:rgb(140,237,159);stop-opacity:1"/><stop offset="0.7" style="stop-color:rgb(126,238,148);stop-opacity:1"/><stop offset="0.86" style="stop-color:rgb(112,240,137);stop-opacity:1"/><stop offset="1" style="stop-color:rgb(72,209,118);stop-opacity:1"/></radialGradient>
        <linearGradient id="_Linear2" x1="0" y1="0" x2="1" y2="0" gradientUnits="userSpaceOnUse" gradientTransform="matrix(0.552246,-0.713867,0.713867,0.552246,0.00390625,0)"><stop offset="0" style="stop-color:rgb(146,236,163);stop-opacity:1"/><stop offset="0.35" style="stop-color:rgb(112,240,137);stop-opacity:1"/><stop offset="0.52" style="stop-color:rgb(72,209,118);stop-opacity:1"/><stop offset="0.67" style="stop-color:rgb(112,240,137);stop-opacity:1"/><stop offset="1" style="stop-color:rgb(146,236,163);stop-opacity:1"/></linearGradient>
        <linearGradient id="_Linear3" x1="0" y1="0" x2="1" y2="0" gradientUnits="userSpaceOnUse" gradientTransform="matrix(-171.642,-3.805,3.805,-171.642,195.049,157.846)"><stop offset="0" style="stop-color:rgb(244,251,248);stop-opacity:1"/><stop offset="1" style="stop-color:rgb(229,238,232);stop-opacity:1"/></linearGradient>
        <linearGradient id="_Linear4" x1="0" y1="0" x2="1" y2="0" gradientUnits="userSpaceOnUse" gradientTransform="matrix(52.4228,159.382,-159.382,52.4228,0.999999,49.6179)"><stop offset="0" style="stop-color:rgb(232,240,235);stop-opacity:1"/><stop offset="1" style="stop-color:rgb(244,251,248);stop-opacity:1"/></linearGradient>
        <radialGradient id="_Radial5" cx="0" cy="0" r="1" gradientUnits="userSpaceOnUse" gradientTransform="matrix(-20.7999,25.1035,-20.6085,-17.0755,64.8345,12.8344)"><stop offset="0" style="stop-color:rgb(242,242,242);stop-opacity:1"/><stop offset="0.78" style="stop-color:rgb(196,196,196);stop-opacity:1"/><stop offset="1" style="stop-color:rgb(196,196,196);stop-opacity:1"/></radialGradient>
        <radialGradient id="_Radial6" cx="0" cy="0" r="1" gradientUnits="userSpaceOnUse" gradientTransform="matrix(-20.7999,25.1035,-20.6085,-17.0755,64.8345,12.8344)"><stop offset="0" style="stop-color:rgb(242,242,242);stop-opacity:1"/><stop offset="0.78" style="stop-color:rgb(196,196,196);stop-opacity:1"/><stop offset="1" style="stop-color:rgb(196,196,196);stop-opacity:1"/></radialGradient>
        <linearGradient id="_Linear7" x1="0" y1="0" x2="1" y2="0" gradientUnits="userSpaceOnUse" gradientTransform="matrix(-19.366,17.573,-17.573,-19.366,126.876,134.765)"><stop offset="0" style="stop-color:rgb(112,240,137);stop-opacity:1"/><stop offset="1" style="stop-color:rgb(72,209,118);stop-opacity:1"/></linearGradient>
        <radialGradient id="_Radial8" cx="0" cy="0" r="1" gradientUnits="userSpaceOnUse" gradientTransform="matrix(-20.7999,25.1035,-20.6085,-17.0755,64.8345,12.8344)"><stop offset="0" style="stop-color:rgb(242,242,242);stop-opacity:1"/><stop offset="0.78" style="stop-color:rgb(196,196,196);stop-opacity:1"/><stop offset="1" style="stop-color:rgb(196,196,196);stop-opacity:1"/></radialGradient>
        <radialGradient id="_Radial9" cx="0" cy="0" r="1" gradientUnits="userSpaceOnUse" gradientTransform="matrix(-20.7999,25.1035,-20.6085,-17.0755,64.8345,12.8344)"><stop offset="0" style="stop-color:rgb(242,242,242);stop-opacity:1"/><stop offset="0.78" style="stop-color:rgb(196,196,196);stop-opacity:1"/><stop offset="1" style="stop-color:rgb(196,196,196);stop-opacity:1"/></radialGradient>
    </defs>
</svg>
