<?xml version="1.0" encoding="UTF-8" standalone="no"?>
<!DOCTYPE svg PUBLIC "-//W3C//DTD SVG 1.1//EN" "http://www.w3.org/Graphics/SVG/1.1/DTD/svg11.dtd">
<svg width="100%" height="100%" viewBox="0 0 441 233" version="1.1" xmlns="http://www.w3.org/2000/svg" xmlns:xlink="http://www.w3.org/1999/xlink" xml:space="preserve" xmlns:serif="http://www.serif.com/" style="fill-rule:evenodd;clip-rule:evenodd;stroke-linejoin:round;stroke-miterlimit:2;">
    <g>
        <path d="M207.258,188.94C207.376,190.089 207.417,191.392 207.417,192.84L207.417,194.07C207.417,194.727 207.406,195.349 207.379,195.937L197.405,199.644C196.665,197.955 196.413,195.713 196.409,192.973L207.258,188.94ZM248.728,180.564L239.232,184.095L239.232,177.053L248.728,173.523L248.728,180.564ZM144.828,177.603L145.063,177.688C145.02,177.764 144.978,177.844 144.935,177.928C144.901,177.817 144.865,177.709 144.828,177.603ZM107.799,137.797L107.799,112.38L97.889,103.358L107.799,101.214L107.799,56.853L191.838,25.632L275.403,56.862L275.403,140.797C275.403,140.797 274.402,144.627 273.581,147.768C273.442,148.301 272.969,148.679 272.418,148.699C271.867,148.718 271.369,148.374 271.192,147.852C270.124,144.697 268.803,140.797 268.803,140.797L268.803,65.737L195.982,91.977L195.839,108.561L247.803,94.675L195.776,115.871L195.329,167.874C193.279,168.359 191.407,169.132 189.712,170.184L189.39,137.11L115.803,107.675L189.322,130.065L188.952,91.999L114.399,65.23L114.399,106.539C112.653,106.917 114.321,107.679 114.399,109.464C115.014,123.562 114.717,123.68 114.522,137.797C114.522,137.797 113.457,142.462 112.553,146.419C112.416,147.021 111.883,147.45 111.266,147.456C110.648,147.462 110.107,147.044 109.958,146.445C108.968,142.483 107.799,137.797 107.799,137.797ZM116.999,60.475L192.447,85.373L265.926,60.366L191.832,32.675L116.999,60.475Z" style="fill:rgb(55,80,104);"/>
        <g transform="matrix(1,0,0,1,21,212)">
            <g transform="matrix(72,0,0,72,12.96,0)">
                <path d="M0.501,-0.19C0.501,-0.127 0.478,-0.078 0.433,-0.043C0.387,-0.008 0.325,0.01 0.247,0.01C0.162,0.01 0.097,-0.001 0.052,-0.023L0.052,-0.103C0.081,-0.091 0.113,-0.081 0.147,-0.074C0.182,-0.067 0.216,-0.063 0.25,-0.063C0.305,-0.063 0.347,-0.073 0.375,-0.094C0.403,-0.115 0.417,-0.145 0.417,-0.182C0.417,-0.207 0.412,-0.227 0.402,-0.243C0.392,-0.259 0.376,-0.273 0.352,-0.287C0.329,-0.3 0.294,-0.315 0.246,-0.332C0.18,-0.356 0.132,-0.384 0.104,-0.417C0.075,-0.449 0.061,-0.492 0.061,-0.544C0.061,-0.599 0.082,-0.643 0.123,-0.675C0.164,-0.708 0.219,-0.724 0.287,-0.724C0.358,-0.724 0.423,-0.711 0.483,-0.685L0.457,-0.613C0.398,-0.638 0.341,-0.65 0.285,-0.65C0.241,-0.65 0.207,-0.64 0.182,-0.622C0.157,-0.603 0.145,-0.576 0.145,-0.543C0.145,-0.518 0.15,-0.498 0.159,-0.482C0.168,-0.466 0.183,-0.452 0.205,-0.439C0.226,-0.426 0.26,-0.411 0.304,-0.395C0.379,-0.368 0.431,-0.34 0.459,-0.309C0.487,-0.278 0.501,-0.239 0.501,-0.19Z" style="fill:rgb(55,80,104);fill-rule:nonzero;"/>
            </g>
            <g transform="matrix(72,0,0,72,49.5956,0)">
                <path d="M0.3,0.01C0.222,0.01 0.162,-0.014 0.12,-0.062C0.077,-0.109 0.056,-0.177 0.056,-0.264C0.056,-0.354 0.078,-0.423 0.121,-0.472C0.164,-0.521 0.225,-0.545 0.305,-0.545C0.331,-0.545 0.357,-0.542 0.382,-0.537C0.408,-0.531 0.428,-0.525 0.443,-0.517L0.418,-0.448C0.4,-0.455 0.381,-0.461 0.359,-0.466C0.338,-0.471 0.319,-0.473 0.303,-0.473C0.194,-0.473 0.14,-0.404 0.14,-0.265C0.14,-0.199 0.153,-0.149 0.18,-0.114C0.206,-0.079 0.246,-0.061 0.298,-0.061C0.342,-0.061 0.388,-0.071 0.435,-0.09L0.435,-0.018C0.399,0 0.354,0.01 0.3,0.01Z" style="fill:rgb(55,80,104);fill-rule:nonzero;"/>
            </g>
            <g transform="matrix(72,0,0,72,80.993,0)">
                <path d="M0.452,0L0.452,-0.346C0.452,-0.39 0.442,-0.422 0.422,-0.444C0.403,-0.465 0.371,-0.476 0.329,-0.476C0.273,-0.476 0.232,-0.461 0.206,-0.43C0.18,-0.4 0.167,-0.349 0.167,-0.28L0.167,0L0.086,0L0.086,-0.76L0.167,-0.76L0.167,-0.53C0.167,-0.502 0.166,-0.479 0.163,-0.461L0.168,-0.461C0.184,-0.487 0.207,-0.507 0.236,-0.522C0.266,-0.537 0.299,-0.544 0.337,-0.544C0.402,-0.544 0.451,-0.528 0.484,-0.497C0.517,-0.466 0.533,-0.417 0.533,-0.349L0.533,0L0.452,0Z" style="fill:rgb(55,80,104);fill-rule:nonzero;"/>
            </g>
            <g transform="matrix(72,0,0,72,122.304,0)">
                <path d="M0.312,0.01C0.233,0.01 0.17,-0.014 0.125,-0.063C0.079,-0.111 0.056,-0.178 0.056,-0.263C0.056,-0.349 0.077,-0.418 0.12,-0.469C0.162,-0.52 0.219,-0.545 0.291,-0.545C0.358,-0.545 0.411,-0.523 0.45,-0.479C0.489,-0.435 0.509,-0.376 0.509,-0.304L0.509,-0.253L0.14,-0.253C0.142,-0.19 0.158,-0.142 0.188,-0.11C0.218,-0.077 0.26,-0.061 0.315,-0.061C0.373,-0.061 0.43,-0.073 0.486,-0.097L0.486,-0.025C0.457,-0.013 0.43,-0.004 0.405,0.002C0.379,0.007 0.348,0.01 0.312,0.01ZM0.29,-0.477C0.247,-0.477 0.213,-0.463 0.187,-0.435C0.162,-0.407 0.147,-0.368 0.142,-0.319L0.422,-0.319C0.422,-0.37 0.41,-0.409 0.388,-0.436C0.365,-0.463 0.332,-0.477 0.29,-0.477Z" style="fill:rgb(55,80,104);fill-rule:nonzero;"/>
            </g>
            <g transform="matrix(72,0,0,72,159.819,0)">
                <path d="M0.45,-0.072L0.446,-0.072C0.408,-0.017 0.352,0.01 0.278,0.01C0.208,0.01 0.153,-0.014 0.115,-0.062C0.076,-0.11 0.056,-0.178 0.056,-0.266C0.056,-0.354 0.076,-0.423 0.115,-0.472C0.154,-0.521 0.208,-0.545 0.278,-0.545C0.35,-0.545 0.406,-0.519 0.445,-0.466L0.451,-0.466L0.448,-0.504L0.446,-0.542L0.446,-0.76L0.527,-0.76L0.527,0L0.461,0L0.45,-0.072ZM0.288,-0.058C0.343,-0.058 0.384,-0.073 0.408,-0.103C0.433,-0.133 0.446,-0.182 0.446,-0.249L0.446,-0.266C0.446,-0.342 0.433,-0.396 0.408,-0.428C0.383,-0.461 0.342,-0.477 0.287,-0.477C0.24,-0.477 0.203,-0.459 0.178,-0.422C0.153,-0.385 0.14,-0.333 0.14,-0.265C0.14,-0.197 0.153,-0.145 0.178,-0.11C0.203,-0.076 0.24,-0.058 0.288,-0.058Z" style="fill:rgb(55,80,104);fill-rule:nonzero;"/>
            </g>
            <g transform="matrix(72,0,0,72,201.06,0)">
                <path d="M0.162,-0.535L0.162,-0.188C0.162,-0.144 0.172,-0.112 0.192,-0.09C0.212,-0.069 0.243,-0.058 0.285,-0.058C0.341,-0.058 0.382,-0.073 0.408,-0.104C0.434,-0.135 0.447,-0.185 0.447,-0.254L0.447,-0.535L0.528,-0.535L0.528,0L0.461,0L0.449,-0.072L0.445,-0.072C0.428,-0.045 0.405,-0.025 0.376,-0.011C0.346,0.003 0.313,0.01 0.275,0.01C0.21,0.01 0.161,-0.006 0.129,-0.037C0.096,-0.068 0.08,-0.117 0.08,-0.185L0.08,-0.535L0.162,-0.535Z" style="fill:rgb(55,80,104);fill-rule:nonzero;"/>
            </g>
            <g transform="matrix(72,0,0,72,242.371,0)">
                <rect x="0.086" y="-0.76" width="0.081" height="0.76" style="fill:rgb(55,80,104);fill-rule:nonzero;"/>
            </g>
            <g transform="matrix(72,0,0,72,257.702,0)">
                <path d="M0.312,0.01C0.233,0.01 0.17,-0.014 0.125,-0.063C0.079,-0.111 0.056,-0.178 0.056,-0.263C0.056,-0.349 0.077,-0.418 0.12,-0.469C0.162,-0.52 0.219,-0.545 0.291,-0.545C0.358,-0.545 0.411,-0.523 0.45,-0.479C0.489,-0.435 0.509,-0.376 0.509,-0.304L0.509,-0.253L0.14,-0.253C0.142,-0.19 0.158,-0.142 0.188,-0.11C0.218,-0.077 0.26,-0.061 0.315,-0.061C0.373,-0.061 0.43,-0.073 0.486,-0.097L0.486,-0.025C0.457,-0.013 0.43,-0.004 0.405,0.002C0.379,0.007 0.348,0.01 0.312,0.01ZM0.29,-0.477C0.247,-0.477 0.213,-0.463 0.187,-0.435C0.162,-0.407 0.147,-0.368 0.142,-0.319L0.422,-0.319C0.422,-0.37 0.41,-0.409 0.388,-0.436C0.365,-0.463 0.332,-0.477 0.29,-0.477Z" style="fill:rgb(55,80,104);fill-rule:nonzero;"/>
            </g>
            <g transform="matrix(72,0,0,72,295.217,0)">
                <path d="M0.637,-0.714L0.637,-0.252C0.637,-0.171 0.613,-0.107 0.563,-0.06C0.514,-0.014 0.447,0.01 0.361,0.01C0.275,0.01 0.208,-0.014 0.161,-0.061C0.114,-0.107 0.091,-0.172 0.091,-0.254L0.091,-0.714L0.174,-0.714L0.174,-0.248C0.174,-0.188 0.19,-0.143 0.223,-0.111C0.255,-0.079 0.303,-0.063 0.366,-0.063C0.426,-0.063 0.473,-0.079 0.505,-0.111C0.538,-0.143 0.554,-0.189 0.554,-0.249L0.554,-0.714L0.637,-0.714Z" style="fill:rgb(55,80,104);fill-rule:nonzero;"/>
            </g>
            <g transform="matrix(72,0,0,72,344.755,0)">
                <path d="M0.573,0L0.479,0L0.287,-0.314L0.092,0L0.004,0L0.241,-0.373L0.02,-0.714L0.112,-0.714L0.289,-0.431L0.468,-0.714L0.556,-0.714L0.335,-0.376L0.573,0Z" style="fill:rgb(55,80,104);fill-rule:nonzero;"/>
            </g>
        </g>
    </g>
</svg>
