<?xml version="1.0" encoding="UTF-8"?>
<svg width="441px" height="233px" viewBox="0 0 441 233" version="1.1" xmlns="http://www.w3.org/2000/svg" xmlns:xlink="http://www.w3.org/1999/xlink">
    <!-- Generator: Sketch 58 (84663) - https://sketch.com -->
    <title>outline &amp; text - navy</title>
    <desc>Created with Sketch.</desc>
    <defs>
        <path d="M186.000796,0 L186.000796,141.349915 C185.298397,141.293738 184.583069,141.265625 183.855469,141.265625 C176.81626,141.265625 170.870311,143.912039 166.547632,149.079378 C164.785381,151.185977 163.41347,153.565559 162.420711,156.198079 L162.213777,156.766055 L162.214844,125.796875 L143.378906,125.796875 L143.378344,141.967875 L125.167969,141.96875 L125.167969,168.71875 C125.167969,172.317379 124.604552,174.493087 123.910035,175.314278 C123.416659,175.897641 122.296238,176.316406 120.03125,176.316406 C119.377506,176.316406 118.86154,176.262159 118.482106,176.175022 L118.327846,176.135725 L118.081406,176.057288 C118.070829,176.055089 118.068105,176.056597 118.070782,176.061639 C117.904898,175.8476 117.696535,175.132957 117.673896,173.721245 L117.671875,173.464844 L117.671875,141.96875 L99.8123437,141.967875 L99.8125,125.796875 L80.9765625,125.796875 L80.9765625,141.886805 C79.2134969,141.473624 77.3445405,141.265625 75.3828125,141.265625 C68.4510041,141.265625 62.6517486,143.870081 58.5649777,148.978545 C57.4561633,150.364563 56.5166014,151.881241 55.7434642,153.52365 C54.8434255,151.596707 53.6851015,149.823934 52.2645153,148.219855 C48.1698843,143.596334 42.5624209,141.265625 35.9375,141.265625 C28.8982911,141.265625 22.9523419,143.912039 18.6296637,149.079378 C14.5139535,153.999308 12.5273438,160.408217 12.5273438,168.050781 C12.5273438,175.265618 14.4407155,181.343019 18.3791576,186.000511 L0,186.000511 L0,0 L186.000796,0 Z M76.280963,158.734375 C78.0914086,158.734375 79.4092868,159.430172 80.2346371,160.821788 C81.0241025,162.152898 81.4359919,164.338132 81.470316,167.377551 L81.4726563,168.531578 C81.4726563,171.412711 81.0653121,173.500103 80.2506115,174.793816 C79.435911,176.087528 78.1233575,176.734375 76.3129118,176.734375 C74.7261094,176.734375 73.5227136,175.986131 72.7026882,174.48962 C71.8826628,172.993109 71.4726563,170.776348 71.4726563,167.83927 C71.4726563,164.944151 71.8853252,162.702914 72.7106754,161.115494 C73.5360257,159.528073 74.7261096,158.734375 76.280963,158.734375 Z" id="path-1"></path>
    </defs>
    <g id="outline-&amp;-text---navy" stroke="none" stroke-width="1" fill="none" fill-rule="evenodd">
        <g id="Group" transform="translate(124.000000, 25.000000)">
            <mask id="mask-2" fill="white">
                <use xlink:href="#path-1"></use>
            </mask>
            <g id="Mask"></g>
            <g id="Group-2" mask="url(#mask-2)">
                <g transform="translate(15.000000, 8.000000)">
                    <path d="M-0.704651776,78.2469875 L-6.95686635,72.5540199 L-0.704651776,71.2016461 L-0.704651776,26.4721549 L80.0318244,-3.5216447 L160.3,26.476938 L160.3,135.678639 L80.0416196,165.515744 L-0.704651776,136.187481 L-0.704651776,78.2469875 Z" id="outline" stroke="#375068" stroke-width="6.6" fill="none"></path>
                    <polygon id="Rectangle" stroke="none" fill="#375068" fill-rule="evenodd" points="80.6436096 52.6980218 156.154747 27 159 28.6764387 159 32.3412053 84.1783924 59.3018088 83.3041125 161.015521 80.5 164 78.1367744 161.015521 77.1484017 59.3235774 2 32.3412053 2 28.6764387 5.03529916 27.7474808"></polygon>
                    <polygon id="Rectangle-Copy" stroke="none" fill="#375068" fill-rule="evenodd" points="82 76.4303316 136 62 82 84"></polygon>
                    <polygon id="Path" stroke="none" fill="#375068" fill-rule="evenodd" points="79 105 4 75 79 97.8409323"></polygon>
                </g>
            </g>
        </g>
        <text id="ScheduleUX" font-family="OpenSans, Open Sans" font-size="72" font-weight="normal" fill="#375068">
            <tspan x="21" y="212">ScheduleUX</tspan>
        </text>
    </g>
</svg>