<?xml version="1.0" encoding="UTF-8" standalone="no"?>
<!DOCTYPE svg PUBLIC "-//W3C//DTD SVG 1.1//EN" "http://www.w3.org/Graphics/SVG/1.1/DTD/svg11.dtd">
<svg width="100%" height="100%" viewBox="0 0 81 20" version="1.1" xmlns="http://www.w3.org/2000/svg" xmlns:xlink="http://www.w3.org/1999/xlink" xml:space="preserve" xmlns:serif="http://www.serif.com/" style="fill-rule:evenodd;clip-rule:evenodd;stroke-linejoin:round;stroke-miterlimit:2;">
    <g id="Artboard1" transform="matrix(0.732478,0,0,0.38926,8.52935,-4.30916)">
        <rect x="-11.645" y="11.07" width="109.494" height="50.105" style="fill:none;"/>
        <g transform="matrix(1.36523,0,0,2.56898,-11.568,-67.4724)">
            <g transform="matrix(0.98699,0,0,0.98699,0.520588,-0.123892)">
                <path d="M72.31,40.11C63.55,46.57 50.85,50 39.92,50C25.314,50.078 11.204,44.705 0.35,34.93C-0.47,34.19 0.26,33.18 1.25,33.75C13.308,40.635 26.955,44.251 40.84,44.24C51.201,44.185 61.45,42.088 71,38.07C72.52,37.44 73.76,39 72.31,40.11Z" style="fill:white;fill-rule:nonzero;"/>
            </g>
            <g transform="matrix(0.98699,0,0,0.98699,0.520588,-0.123892)">
                <path d="M76,36C74.88,34.57 68.6,35.32 65.77,35.66C64.91,35.76 64.77,35.02 65.55,34.48C70.55,30.96 78.78,31.98 79.73,33.16C80.68,34.34 79.48,42.57 74.73,46.5C74.01,47.1 73.32,46.78 73.64,45.98C74.71,43.29 77.08,37.39 76,36Z" style="fill:white;fill-rule:nonzero;"/>
            </g>
        </g>
    </g>
</svg>
