<?xml version="1.0" encoding="UTF-8" standalone="no"?>
<!DOCTYPE svg PUBLIC "-//W3C//DTD SVG 1.1//EN" "http://www.w3.org/Graphics/SVG/1.1/DTD/svg11.dtd">
<svg width="100%" height="100%" viewBox="0 0 68 70" version="1.1" xmlns="http://www.w3.org/2000/svg" xmlns:xlink="http://www.w3.org/1999/xlink" xml:space="preserve" xmlns:serif="http://www.serif.com/" style="fill-rule:evenodd;clip-rule:evenodd;stroke-linejoin:round;stroke-miterlimit:2;">
    <g transform="matrix(1.54989,0,0,1.54989,-18.6384,-21.0493)">
        <path d="M41.486,54.836C40.253,56.522 39.224,57.291 38.444,57.557C37.413,57.909 36.704,57.51 36.306,56.943C35.964,56.455 35.874,55.818 36.009,55.367C36.491,53.811 36.737,52.403 36.628,49.183C36.604,48.461 36.917,47.449 37.425,46.362C38.541,43.971 40.563,41.167 41.327,40.382C42.545,39.132 45.078,38.723 46.618,39.889C47.053,40.219 47.682,41.159 48.345,42.429C49.798,45.217 51.522,49.628 52.087,52.001C52.619,54.236 52.189,55.915 51.416,56.835C50.822,57.542 50.023,57.842 49.211,57.691C47.523,57.378 46.664,56.575 45.972,54.87C45.036,54.854 42.407,54.812 41.486,54.836ZM45.133,50.316C45.033,49.662 44.908,48.664 44.676,47.794C44.579,47.425 44.462,47.082 44.312,46.811C44.21,46.628 44.107,46.475 43.959,46.42C43.943,46.414 43.933,46.427 43.921,46.438C43.882,46.473 43.847,46.519 43.813,46.571C43.699,46.746 43.604,46.982 43.518,47.249C43.353,47.755 43.225,48.364 43.11,48.933C42.975,49.601 42.86,50.059 42.837,50.353C43.353,50.356 44.44,50.349 45.133,50.316Z"/>
        <path d="M27.949,46.062C27.987,45.078 28.107,42.925 28.426,42.093C29.115,40.299 30.945,39.934 32.434,40.436C33.436,40.774 34.255,41.508 34.485,42.401C35.119,44.871 35.547,50.315 35.095,53.842C34.795,56.178 34.023,57.226 33.252,57.613C32.589,57.946 31.877,57.85 31.272,57.552C30.708,57.275 30.247,56.823 30.027,56.459C29.286,55.24 28.934,53.883 28.628,51.104L26.576,51.268C26.552,52.143 26.441,54.095 25.926,55.822C25.103,58.582 21.967,58.668 20.79,56.974C20.104,55.986 19.642,54.343 19.357,52.555C18.944,49.968 18.879,47.077 18.907,45.575C18.952,43.092 19.674,41.748 20.538,41.053C21.461,40.309 22.585,40.265 23.442,40.46C24.159,40.622 24.765,41.076 25.255,41.847C25.848,42.779 26.279,44.216 26.568,46.151C26.967,46.12 27.536,46.079 27.949,46.062Z"/>
        <path d="M41.603,34.389C41.151,36.032 40.292,37.261 39.169,37.933C37.935,38.672 36.368,38.764 34.608,37.952C34.444,37.877 34.31,37.741 34.283,37.486C34.271,37.372 34.301,37.158 34.402,36.849C34.788,35.665 36.185,32.284 36.024,25.986L36.024,25.968C36.036,24.782 37.421,21.483 39.205,18.818C40.423,17 41.834,15.49 43.07,15.06C44.552,14.544 46.258,14.805 47.985,16.407C50.352,18.602 52.816,23.471 54.734,32.572C55.183,34.16 54.762,36.244 53.723,37.499C52.969,38.41 51.908,38.905 50.632,38.578C48.767,38.1 47.226,36.333 46.91,34.278C45.671,34.317 42.674,34.378 41.603,34.389ZM44.583,24.754C44.149,25.987 43.559,28.131 43.273,29.197L45.733,29.152C45.522,28.18 44.99,26.006 44.583,24.754Z"/>
        <path d="M24.668,23.422C24.685,22.443 24.753,20.179 25.02,18.703C25.315,17.079 26.511,15.87 27.933,15.336C29.37,14.796 31.025,14.95 32.205,16.011C33.03,16.752 33.621,17.788 33.988,19.813C34.329,21.701 34.486,24.5 34.5,28.837C34.508,31.168 34.326,34.357 33.382,36.456C32.673,38.033 31.547,39.022 29.859,38.853C28.087,38.676 27.135,37.767 26.506,36.218C25.973,34.904 25.688,33.084 25.269,30.844L22.957,30.842C22.928,33.51 22.679,35.332 22.285,36.543C21.974,37.5 21.562,38.105 21.105,38.469C20.418,39.017 18.769,39.772 17.109,39.006C16.062,38.523 14.98,37.421 14.187,35.166C12.945,31.629 12.666,25.387 13.018,20.731C13.173,18.69 13.862,17.416 14.73,16.638C16.06,15.445 17.849,15.396 19.04,15.652C20.898,16.052 22.699,17.671 22.695,23.487C23.222,23.481 24.119,23.445 24.668,23.422Z"/>
    </g>
</svg>
