<?xml version="1.0" encoding="UTF-8" standalone="no"?>
<!DOCTYPE svg PUBLIC "-//W3C//DTD SVG 1.1//EN" "http://www.w3.org/Graphics/SVG/1.1/DTD/svg11.dtd">
<svg width="100%" height="100%" viewBox="0 0 534 420" version="1.1" xmlns="http://www.w3.org/2000/svg" xmlns:xlink="http://www.w3.org/1999/xlink" xml:space="preserve" xmlns:serif="http://www.serif.com/" style="fill-rule:evenodd;clip-rule:evenodd;stroke-linejoin:round;stroke-miterlimit:2;">
    <path d="M402.67,172.43C402.67,245.86 342.81,305.74 269.34,305.81C195.61,305.87 135.73,246.07 135.74,172.39C135.773,99.204 196.004,39 269.19,39C269.253,39 269.317,39 269.38,39C342.84,39.08 402.67,99 402.67,172.43ZM269.29,55.43C269.193,55.43 269.097,55.43 269,55.43C204.898,55.43 152.12,108.109 152,172.21C152,236.89 204.32,289.46 268.83,289.5C333.58,289.5 386.19,237.26 386.26,172.81C386.261,172.667 386.261,172.523 386.261,172.38C386.261,108.203 333.457,55.391 269.28,55.38L269.29,55.43Z" style="fill:rgb(79,83,84);fill-rule:nonzero;"/>
    <path d="M414.93,294.68L414.93,46.46L446.89,46.46C474.89,46.52 497.65,65.24 502.17,92.8C505.37,112.3 499.1,129.01 484.73,142.61C482.92,144.32 480.93,145.83 478.73,147.7C479.79,148.3 480.73,148.84 481.61,149.32C503.72,160.7 518.18,178.32 522.93,202.79C528.57,231.87 519.93,256.67 497.65,276.28C483.18,289.02 465.87,294.68 446.65,294.68L414.93,294.68ZM430.79,279.17C436.79,279.17 442.37,279.22 447.98,279.17C480.41,278.83 506.28,254.47 508.67,222.07C510.53,196.83 495.54,172.35 472.38,162.19C459.2,156.41 445.38,156.68 431.52,157.19C431.244,157.307 430.995,157.481 430.79,157.7L430.79,279.17ZM430.86,62.43L430.86,141.43C431.86,141.51 432.73,141.65 433.57,141.63C440.18,141.48 446.85,141.82 453.39,141.02C470.1,138.786 483.574,125.992 486.67,109.42C489.749,92.737 481.894,75.828 467.16,67.42C455.7,60.91 443.33,62.47 430.85,62.43L430.86,62.43Z" style="fill:rgb(79,83,84);fill-rule:nonzero;"/>
    <path d="M24.27,46.46C35.1,46.46 45.7,46.41 56.27,46.46C59.392,46.474 62.509,46.701 65.6,47.14C90.081,50.906 109.129,70.79 111.84,95.41C113.91,115.66 106.6,132.05 91.22,145.06C90.28,145.86 89.31,146.63 88.02,147.68C89.29,148.38 90.32,148.98 91.37,149.52C113.19,160.86 127.42,178.37 132.21,202.52C137.98,231.59 129.34,256.41 107.21,276.09C92.68,289 75.26,294.7 55.91,294.68L24.27,294.68L24.27,46.46ZM40.26,279.17L57.68,279.17C93.34,278.97 121.6,247.73 117.82,212.42C115.26,188.67 102.66,172 81.09,162C68.27,156.07 54.59,156.71 40.97,157.12C40.701,157.235 40.459,157.406 40.26,157.62L40.26,279.17ZM40.19,141.68C46.19,141.68 51.78,141.73 57.38,141.68C59.39,141.62 61.394,141.43 63.38,141.11C82.38,138.37 96.84,121.36 96.78,101.86C96.72,82.36 82.08,65.29 62.94,63C55.68,62.13 48.25,62.61 40.94,62.5C40.664,62.63 40.418,62.818 40.22,63.05L40.22,141.67L40.19,141.68Z" style="fill:rgb(79,83,84);fill-rule:nonzero;"/>
    <rect x="11.55" y="396.25" width="513.27" height="13.81" style="fill:rgb(79,83,84);fill-rule:nonzero;"/>
    <rect x="11.41" y="10.7" width="513.41" height="13.78" style="fill:rgb(79,83,84);fill-rule:nonzero;"/>
    <path d="M248.12,346.76C248.12,330.555 261.455,317.22 277.66,317.22C293.865,317.22 307.2,330.555 307.2,346.76L307.2,346.76C307.2,362.965 293.865,376.3 277.66,376.3C261.455,376.3 248.12,362.965 248.12,346.76L248.12,346.76ZM295.8,346.76C295.767,336.81 287.57,328.641 277.62,328.641C267.647,328.641 259.44,336.848 259.44,346.821C259.44,356.719 267.523,364.891 277.42,365C277.463,365 277.507,365 277.55,365C287.562,365 295.8,356.762 295.8,346.75L295.8,346.76Z" style="fill:rgb(79,83,84);fill-rule:nonzero;"/>
    <path d="M123.75,346.58C123.849,330.416 137.175,317.171 153.339,317.171C169.572,317.171 182.929,330.528 182.929,346.761C182.929,362.993 169.572,376.351 153.339,376.351C153.273,376.351 153.206,376.35 153.14,376.35C136.927,376.208 123.684,362.793 123.75,346.58ZM135.05,346.8C135.05,346.803 135.05,346.805 135.05,346.808C135.05,356.836 143.302,365.088 153.33,365.088C163.358,365.088 171.61,356.836 171.61,346.808C171.61,336.78 163.358,328.528 153.33,328.528C153.237,328.528 153.143,328.529 153.05,328.53C143.173,328.786 135.159,336.92 135.05,346.8Z" style="fill:rgb(79,83,84);fill-rule:nonzero;"/>
    <path d="M52.56,344.17C56.86,347.01 59.88,350.48 60.95,355.43C62.83,364.18 57.11,373.76 48.26,374.72C40.41,375.58 32.39,374.9 24.26,374.9L24.26,319.11C25.174,318.961 26.095,318.861 27.02,318.81C31.89,318.81 36.76,318.91 41.63,318.81C48.35,318.62 53.63,320.93 56.63,327.18C59.31,332.69 58,338.12 52.56,344.17ZM35.22,365.34C37.802,365.477 40.388,365.477 42.97,365.34C47.09,364.88 50.15,361.6 50.19,358.01C50.19,354.61 46.94,350.93 43.08,350.49C40.463,350.329 37.839,350.312 35.22,350.44L35.22,365.34ZM35.3,328.19L35.3,340.13C39.5,340.75 43.22,340.56 45.8,336.91C47.045,335.261 47.045,332.969 45.8,331.32C43.23,327.58 39.44,327.69 35.29,328.18L35.3,328.19Z" style="fill:rgb(79,83,84);fill-rule:nonzero;"/>
    <path d="M372.2,319L382.36,319L382.36,341.47C383.6,340.14 384.28,339.47 384.84,338.79C389.44,332.87 394.06,326.97 398.56,320.97C399.466,319.464 401.159,318.604 402.91,318.76C405.77,318.93 408.64,318.76 412.44,318.76L391.7,346.49L413.33,375.12C408.73,375.12 404.83,375.25 400.96,375.02C400.13,375.02 399.25,373.72 398.61,372.87C394.13,366.87 389.71,360.8 385.27,354.77C384.62,353.88 383.91,353.03 382.66,351.43L382.66,375L372.2,375L372.2,319Z" style="fill:rgb(79,83,84);fill-rule:nonzero;"/>
    <path d="M514.18,332.77C513.645,332.872 513.104,332.942 512.56,332.98L503.56,332.98C502.63,329.59 500.67,327.3 496.73,327.65C494.289,327.7 492.142,329.318 491.42,331.65C490.659,333.875 491.651,336.349 493.74,337.43C495.682,338.561 497.685,339.582 499.74,340.49C502.22,341.65 504.81,342.6 507.24,343.85C514.64,347.64 517.49,353.85 515.24,361.85C511.24,375.7 498.01,379.14 487.24,373.85C482.47,371.52 479.19,365.26 478.82,358.58L489,358.58C489.45,359.48 490,360.58 490.55,361.66C492.091,364.801 495.669,366.43 499.05,365.53C502.439,364.8 505.003,361.974 505.4,358.53C505.63,356.085 504.315,353.74 502.11,352.66C499.73,351.32 497.16,350.32 494.68,349.16C492.54,348.16 490.33,347.26 488.28,346.09C482.58,342.85 480.01,337.82 480.77,331.37C481.356,325.479 485.378,320.463 491,318.61C503.2,314 513.43,322.41 514.18,332.77Z" style="fill:rgb(79,83,84);fill-rule:nonzero;"/>
    <path d="M515.37,288.83C516.928,288.84 518.458,289.243 519.82,290C521.252,290.763 522.43,291.927 523.21,293.35C524.795,296.137 524.795,299.563 523.21,302.35C522.439,303.768 521.276,304.935 519.86,305.71C517.073,307.295 513.647,307.295 510.86,305.71C509.442,304.935 508.275,303.768 507.5,302.35C505.907,299.565 505.907,296.135 507.5,293.35C508.281,291.928 509.459,290.764 510.89,290C512.261,289.238 513.802,288.836 515.37,288.83ZM515.37,290.33C514.065,290.343 512.785,290.687 511.65,291.33C510.456,291.97 509.472,292.943 508.82,294.13C507.473,296.459 507.473,299.341 508.82,301.67C509.469,302.85 510.44,303.821 511.62,304.47C513.942,305.804 516.808,305.804 519.13,304.47C520.311,303.823 521.283,302.851 521.93,301.67C523.269,299.338 523.269,296.462 521.93,294.13C521.278,292.943 520.294,291.97 519.1,291.33C517.962,290.686 516.678,290.342 515.37,290.33ZM511.37,302.9L511.37,293.15L514.72,293.15C515.556,293.112 516.392,293.203 517.2,293.42C517.698,293.591 518.127,293.922 518.42,294.36C518.716,294.778 518.877,295.278 518.88,295.79C518.887,296.487 518.613,297.158 518.12,297.65C517.589,298.188 516.875,298.506 516.12,298.54C516.426,298.661 516.708,298.837 516.95,299.06C517.503,299.652 517.989,300.302 518.4,301L519.59,302.91L517.67,302.91L516.81,301.37C516.4,300.521 515.842,299.752 515.16,299.1C514.79,298.849 514.346,298.729 513.9,298.76L513,298.76L513,302.9L511.37,302.9ZM513,297.41L514.85,297.41C515.501,297.476 516.156,297.332 516.72,297C517.263,296.542 517.376,295.74 516.98,295.15C516.812,294.917 516.579,294.739 516.31,294.64C515.796,294.499 515.262,294.442 514.73,294.47L513,294.47L513,297.41Z" style="fill:rgb(79,83,84);fill-rule:nonzero;"/>
</svg>
